<?xml version="1.0" encoding="UTF-8"?>
<!DOCTYPE svg PUBLIC "-//W3C//DTD SVG 1.1//EN" "http://www.w3.org/Graphics/SVG/1.1/DTD/svg11.dtd">
<svg xmlns="http://www.w3.org/2000/svg" version="1.1" width="1658px" height="2049px" style="shape-rendering:geometricPrecision; text-rendering:geometricPrecision; image-rendering:optimizeQuality; fill-rule:evenodd; clip-rule:evenodd" xmlns:xlink="http://www.w3.org/1999/xlink">
<g><path style="opacity:0.993" fill="#000000" d="M 331.5,37.5 C 654.5,37.3333 977.5,37.5 1300.5,38C 1311.05,54.2717 1322.22,70.105 1334,85.5C 1359.98,118.911 1394.15,137.245 1436.5,140.5C 1434.32,505.502 1431.82,870.502 1429,1235.5C 1419.41,1319.67 1388.41,1394.67 1336,1460.5C 1303.65,1499.85 1267.15,1534.69 1226.5,1565C 1164.26,1610.16 1098.59,1650.16 1029.5,1685C 956.785,1721.1 884.952,1758.6 814,1797.5C 709.675,1749.6 609.175,1695.43 512.5,1635C 447.809,1594.34 388.309,1546.84 334,1492.5C 284.057,1439.66 247.057,1378.66 223,1309.5C 216.132,1289.23 209.465,1268.9 203,1248.5C 203.688,872.831 205.188,497.165 207.5,121.5C 230.74,119.69 252.74,113.524 273.5,103C 285.88,94.9571 296.713,85.1238 306,73.5C 314.719,61.6207 323.219,49.6207 331.5,37.5 Z"/></g>
<g><path style="opacity:1" fill="#fdfdfd" d="M 825.5,163.5 C 825.833,264.335 825.499,365.001 824.5,465.5C 799.189,432.168 765.523,413.334 723.5,409C 709.5,408.333 695.5,408.333 681.5,409C 659.826,412.868 638.159,416.868 616.5,421C 594.261,424.124 571.927,425.124 549.5,424C 511.546,421.02 477.546,408.02 447.5,385C 446.502,297.237 446.168,209.404 446.5,121.5C 453.265,122.086 459.931,123.253 466.5,125C 491.181,132.087 516.181,137.754 541.5,142C 580.971,144.883 619.304,139.55 656.5,126C 698.302,115.394 739.302,117.727 779.5,133C 796.444,140.956 811.778,151.123 825.5,163.5 Z"/></g>
<g><path style="opacity:1" fill="#fefefe" d="M 837.5,469.5 C 836.501,369.001 836.167,268.335 836.5,167.5C 868.123,144.451 903.456,130.284 942.5,125C 955.833,124.333 969.167,124.333 982.5,125C 1012.02,129.305 1041.36,134.638 1070.5,141C 1097.88,144.427 1125.21,144.093 1152.5,140C 1170.05,137.111 1187.39,133.278 1204.5,128.5C 1206.19,217.158 1207.02,305.825 1207,394.5C 1174.9,419.128 1138.73,434.295 1098.5,440C 1084.13,440.869 1069.8,440.536 1055.5,439C 1033.86,433.343 1012.19,427.676 990.5,422C 958.072,418.061 927.072,423.061 897.5,437C 876.852,446.857 856.852,457.69 837.5,469.5 Z"/></g>
<g><path style="opacity:1" fill="#fafafa" d="M 408.5,143.5 C 419.214,146.042 429.881,148.709 440.5,151.5C 440.167,230.503 440.5,309.503 441.5,388.5C 457.143,401.159 474.476,410.992 493.5,418C 481.418,417.397 469.751,414.731 458.5,410C 439.11,401.098 421.776,389.265 406.5,374.5C 405.5,323.171 405.167,271.838 405.5,220.5C 405.836,194.65 406.836,168.984 408.5,143.5 Z"/></g>
<g><path style="opacity:1" fill="#fbfbfb" d="M 1231.5,143.5 C 1234.5,143.5 1237.5,143.5 1240.5,143.5C 1240.83,223.169 1240.5,302.836 1239.5,382.5C 1220.61,401.944 1198.27,415.777 1172.5,424C 1186.84,416.502 1200.5,408.002 1213.5,398.5C 1213.83,392.333 1214.17,386.167 1214.5,380C 1213.46,302.167 1212.46,224.334 1211.5,146.5C 1218.39,146.094 1225.06,145.094 1231.5,143.5 Z"/></g>
<g><path style="opacity:1" fill="#fdfdfd" d="M 1265.5,151.5 C 1266.5,151.5 1267.5,151.5 1268.5,151.5C 1268.5,173.5 1268.5,195.5 1268.5,217.5C 1268.64,278.509 1267.97,339.509 1266.5,400.5C 1237.35,420.605 1205.02,431.438 1169.5,433C 1199.46,423.278 1225.29,407.111 1247,384.5C 1247.5,307.834 1247.67,231.167 1247.5,154.5C 1253.46,153.242 1259.46,152.242 1265.5,151.5 Z"/></g>
<g><path style="opacity:1" fill="#fbfbfb" d="M 372.5,153.5 C 381.168,155.167 389.835,156.834 398.5,158.5C 398.333,231.167 398.5,303.834 399,376.5C 422.351,400.762 450.518,416.596 483.5,424C 462.101,426.09 440.768,425.423 419.5,422C 402.4,418.359 386.733,411.526 372.5,401.5C 371.243,329.839 370.576,258.172 370.5,186.5C 369.856,175.116 370.523,164.116 372.5,153.5 Z"/></g>
<g><path style="opacity:1" fill="#1d1d1d" d="M 825.5,163.5 C 826.832,264.334 826.832,365.334 825.5,466.5C 824.893,466.376 824.56,466.043 824.5,465.5C 825.499,365.001 825.833,264.335 825.5,163.5 Z"/></g>
<g><path style="opacity:1" fill="#5f5f5f" d="M 836.5,167.5 C 836.167,268.335 836.501,369.001 837.5,469.5C 837.44,470.043 837.107,470.376 836.5,470.5C 835.168,369.334 835.168,268.334 836.5,167.5 Z"/></g>
<g><path style="opacity:1" fill="#5b5b5b" d="M 372.5,153.5 C 370.523,164.116 369.856,175.116 370.5,186.5C 369.505,175.346 369.172,164.012 369.5,152.5C 370.791,152.263 371.791,152.596 372.5,153.5 Z"/></g>
<g><path style="opacity:1" fill="#737373" d="M 1265.5,151.5 C 1266.57,150.566 1267.9,150.232 1269.5,150.5C 1269.83,173.006 1269.5,195.34 1268.5,217.5C 1268.5,195.5 1268.5,173.5 1268.5,151.5C 1267.5,151.5 1266.5,151.5 1265.5,151.5 Z"/></g>
<g><path style="opacity:1" fill="#b1b1b1" d="M 408.5,143.5 C 406.836,168.984 405.836,194.65 405.5,220.5C 405.5,194.5 405.5,168.5 405.5,142.5C 406.791,142.263 407.791,142.596 408.5,143.5 Z"/></g>
<g><path style="opacity:1" fill="#0a0a0a" d="M 653.5,240.5 C 662.823,240.741 664.823,244.574 659.5,252C 653.984,253.925 650.651,252.091 649.5,246.5C 649.866,243.744 651.2,241.744 653.5,240.5 Z"/></g>
<g><path style="opacity:1" fill="#e6e6e6" d="M 655.5,245.5 C 657.337,245.639 657.67,246.306 656.5,247.5C 655.702,247.043 655.369,246.376 655.5,245.5 Z"/></g>
<g><path style="opacity:1" fill="#0d0d0d" d="M 479.5,254.5 C 495.874,253.042 503.374,260.375 502,276.5C 499.004,287.424 491.838,291.924 480.5,290C 478.481,289.55 476.648,288.717 475,287.5C 474.667,287.833 474.333,288.167 474,288.5C 473.333,296.167 473.333,303.833 474,311.5C 474.5,312 475,312.5 475.5,313C 481.5,313.667 487.5,313.667 493.5,313C 494.687,311.981 495.687,310.814 496.5,309.5C 497.689,308.571 499.022,308.238 500.5,308.5C 501.359,313.28 499.692,316.78 495.5,319C 488.5,319.667 481.5,319.667 474.5,319C 471.527,317.235 469.36,314.735 468,311.5C 467.009,300.077 467.509,288.743 469.5,277.5C 470.446,277.013 471.446,276.68 472.5,276.5C 474.498,278.962 476.832,281.128 479.5,283C 492.73,286.445 498.563,281.278 497,267.5C 489.915,257.29 482.415,256.956 474.5,266.5C 469.924,268.092 468.758,266.759 471,262.5C 473.579,259.479 476.413,256.812 479.5,254.5 Z"/></g>
<g><path style="opacity:1" fill="#0b0b0b" d="M 784.5,254.5 C 790.66,253.465 795.993,254.965 800.5,259C 800.138,260.885 798.971,261.719 797,261.5C 793.196,260.521 789.362,260.355 785.5,261C 784.075,262.714 784.408,264.047 786.5,265C 791.637,266.268 796.637,267.934 801.5,270C 807.324,275.584 807.991,281.75 803.5,288.5C 804.325,289.386 805.325,289.719 806.5,289.5C 806.66,291.199 806.494,292.866 806,294.5C 805.275,295.059 804.442,295.392 803.5,295.5C 796.982,293.84 790.315,293.007 783.5,293C 774.965,291.152 771.132,285.986 772,277.5C 772.785,275.714 773.951,274.214 775.5,273C 779.594,272.233 783.594,272.566 787.5,274C 791.356,277.357 795.356,280.524 799.5,283.5C 801.13,280.104 800.463,277.271 797.5,275C 790.836,273.631 784.669,271.131 779,267.5C 776.429,261.308 778.262,256.975 784.5,254.5 Z"/></g>
<g><path style="opacity:1" fill="#0b0b0b" d="M 1168.5,254.5 C 1182.96,253.375 1191.29,259.875 1193.5,274C 1191.15,289.428 1182.31,295.594 1167,292.5C 1166.29,290.633 1166.79,289.133 1168.5,288C 1175.83,288.567 1181.66,286.067 1186,280.5C 1188.86,267.023 1183.36,260.523 1169.5,261C 1166.35,262.978 1163.69,265.478 1161.5,268.5C 1159.6,269.466 1157.6,269.799 1155.5,269.5C 1157.36,262.307 1161.7,257.307 1168.5,254.5 Z"/></g>
<g><path style="opacity:1" fill="#0c0c0c" d="M 703.5,255.5 C 711.208,255.07 718.208,257.07 724.5,261.5C 732.701,254.896 741.701,253.73 751.5,258C 759.198,264.016 761.698,271.849 759,281.5C 753.706,291.825 745.706,295.158 735,291.5C 735.809,281.173 741.309,274.506 751.5,271.5C 752.014,267.103 750.014,263.937 745.5,262C 739.074,260.35 733.574,261.85 729,266.5C 728.439,269.29 727.106,271.623 725,273.5C 726.185,275.257 727.352,277.257 728.5,279.5C 723.154,292.122 713.82,296.622 700.5,293C 697.37,290.872 694.537,288.372 692,285.5C 692.146,282.051 693.979,280.885 697.5,282C 702.711,287.794 709.045,289.127 716.5,286C 723.625,281.252 722.958,278.252 714.5,277C 712.473,275.604 712.14,273.938 713.5,272C 715.392,271.027 717.392,270.36 719.5,270C 720.876,267.46 720.21,265.46 717.5,264C 710.931,260.294 704.764,260.794 699,265.5C 698.333,266.5 698.333,267.5 699,268.5C 703.044,270.899 703.377,273.565 700,276.5C 691.533,273.916 689.533,268.916 694,261.5C 696.843,258.837 700.009,256.837 703.5,255.5 Z"/></g>
<g><path style="opacity:1" fill="#0e0e0e" d="M 522.5,256.5 C 524.252,256.418 525.252,257.251 525.5,259C 524.454,262.051 522.621,264.551 520,266.5C 516.74,274.296 518.574,280.463 525.5,285C 537.904,286.263 543.071,280.763 541,268.5C 538.714,265.896 536.881,263.063 535.5,260C 535.509,258.596 536.009,257.43 537,256.5C 541.087,259.916 544.42,263.916 547,268.5C 548.855,279.675 544.355,287.175 533.5,291C 518.328,291.16 511.495,283.66 513,268.5C 515.619,264.05 518.786,260.05 522.5,256.5 Z"/></g>
<g><path style="opacity:1" fill="#111111" d="M 994.5,255.5 C 1010.31,255.808 1018.14,263.808 1018,279.5C 1014.43,291.039 1006.6,296.205 994.5,295C 991.007,293.522 990.674,291.522 993.5,289C 1006.09,290.399 1012.26,284.899 1012,272.5C 1008.6,264.029 1002.43,260.862 993.5,263C 990.689,264.644 988.356,266.81 986.5,269.5C 984.604,270.466 982.604,270.799 980.5,270.5C 982.426,262.908 987.093,257.908 994.5,255.5 Z"/></g>
<g><path style="opacity:1" fill="#0c0c0c" d="M 1043.5,256.5 C 1052.5,255.111 1060,257.777 1066,264.5C 1066.54,268.278 1065.71,271.778 1063.5,275C 1068.49,285.029 1065.49,291.695 1054.5,295C 1045.17,296.504 1037.84,293.337 1032.5,285.5C 1035.45,281.459 1038.11,281.626 1040.5,286C 1047.48,291.047 1053.98,290.547 1060,284.5C 1060.67,283.5 1060.67,282.5 1060,281.5C 1056.94,279.942 1054.77,277.609 1053.5,274.5C 1055.36,272.145 1057.36,269.979 1059.5,268C 1057.1,264.296 1053.6,262.462 1049,262.5C 1044.79,262.683 1041.62,264.517 1039.5,268C 1040.44,269.944 1041.77,271.611 1043.5,273C 1040.52,277.62 1037.69,277.453 1035,272.5C 1033.58,269.97 1033.25,267.303 1034,264.5C 1036.77,261.217 1039.94,258.55 1043.5,256.5 Z"/></g>
<g><path style="opacity:1" fill="#0d0d0d" d="M 1129.5,255.5 C 1147.2,256.253 1154.36,265.253 1151,282.5C 1145.66,292.07 1137.49,295.904 1126.5,294C 1122.76,292.587 1119.26,290.753 1116,288.5C 1103.39,297.597 1092.06,296.264 1082,284.5C 1077.3,272.221 1080.8,262.888 1092.5,256.5C 1094.05,257.212 1095.05,258.378 1095.5,260C 1092.37,262.806 1089.53,265.972 1087,269.5C 1085.29,282.788 1091.12,288.955 1104.5,288C 1114.76,283.227 1116.93,276.06 1111,266.5C 1109.29,264.457 1107.29,262.79 1105,261.5C 1104.23,256.522 1106.06,255.355 1110.5,258C 1113.7,260.869 1116.54,264.035 1119,267.5C 1120.22,272.386 1120.89,277.386 1121,282.5C 1128.63,290.413 1136.3,290.413 1144,282.5C 1148.07,269.308 1143.24,262.308 1129.5,261.5C 1129.5,259.5 1129.5,257.5 1129.5,255.5 Z"/></g>
<g><path style="opacity:1" fill="#111111" d="M 569.5,257.5 C 578.141,256.655 584.807,259.821 589.5,267C 588.788,268.442 587.621,269.275 586,269.5C 583.888,268.392 582.054,266.892 580.5,265C 569.883,261.444 564.217,265.278 563.5,276.5C 564.076,285.239 568.743,289.072 577.5,288C 580.902,286.6 583.736,284.433 586,281.5C 587,282.5 588,283.5 589,284.5C 589.66,295.916 588.994,307.25 587,318.5C 585.363,320.81 583.196,322.31 580.5,323C 575.167,323.667 569.833,323.667 564.5,323C 557.947,320.27 555.78,315.437 558,308.5C 561.387,304.961 565.553,303.628 570.5,304.5C 571.833,310.5 569.5,312.833 563.5,311.5C 562.79,314.86 564.124,316.693 567.5,317C 573.064,318.098 578.231,317.265 583,314.5C 583.5,307.174 583.666,299.841 583.5,292.5C 571.121,296.564 562.288,292.564 557,280.5C 555.444,269.606 559.61,261.939 569.5,257.5 Z"/></g>
<g><path style="opacity:1" fill="#0d0d0d" d="M 965.5,257.5 C 970.932,261.433 975.099,266.433 978,272.5C 979.645,287.563 972.978,295.896 958,297.5C 942.192,294.577 936.526,285.244 941,269.5C 943.306,264.694 946.806,261.027 951.5,258.5C 952.641,260.421 952.808,262.421 952,264.5C 946.488,268.862 944.321,274.529 945.5,281.5C 949.522,279.995 953.689,278.995 958,278.5C 962.806,279.411 967.639,280.077 972.5,280.5C 972.663,278.143 972.497,275.81 972,273.5C 969.741,269.405 966.907,265.738 963.5,262.5C 964.174,260.805 964.841,259.138 965.5,257.5 Z"/></g>
<g><path style="opacity:1" fill="#101010" d="M 605.5,259.5 C 622.285,258.118 629.785,265.785 628,282.5C 623.811,291.792 616.644,295.626 606.5,294C 604.342,292.688 604.009,291.022 605.5,289C 620.598,289.931 625.765,283.431 621,269.5C 618.464,266.234 615.131,264.9 611,265.5C 609.167,265.667 607.333,265.833 605.5,266C 603.221,268.061 601.054,270.228 599,272.5C 597.274,272.054 595.774,271.221 594.5,270C 597.404,265.593 601.071,262.093 605.5,259.5 Z"/></g>
<g><path style="opacity:1" fill="#0c0c0c" d="M 902.5,258.5 C 916.436,257.127 925.102,263.127 928.5,276.5C 926.354,291.462 917.854,298.462 903,297.5C 902.257,295.559 902.424,293.726 903.5,292C 917.357,291.504 922.857,284.671 920,271.5C 915.071,265.882 908.905,264.049 901.5,266C 895.73,269.305 893.897,274.139 896,280.5C 894.745,286.843 891.579,292.01 886.5,296C 882.064,298.645 880.231,297.478 881,292.5C 887.441,288.092 890.108,282.092 889,274.5C 885.501,267.001 879.667,264.167 871.5,266C 862.114,270.828 859.948,277.994 865,287.5C 866.815,289.405 868.815,291.072 871,292.5C 871.494,294.134 871.66,295.801 871.5,297.5C 863.95,296.125 858.784,291.792 856,284.5C 854.192,273.283 858.359,265.116 868.5,260C 876.833,258.391 884.5,259.891 891.5,264.5C 895.352,262.743 899.018,260.743 902.5,258.5 Z"/></g>
<g><path style="opacity:1" fill="#0e0e0e" d="M 651.5,260.5 C 657.092,260.087 662.092,261.587 666.5,265C 665.902,267.048 664.569,268.215 662.5,268.5C 660.026,267.731 657.526,267.064 655,266.5C 650.768,266.665 649.934,268.165 652.5,271C 660.308,271.815 666.474,275.315 671,281.5C 671.538,290.641 667.205,295.974 658,297.5C 657.5,305.827 657.334,314.16 657.5,322.5C 655.5,322.5 653.5,322.5 651.5,322.5C 651.831,314.14 651.498,305.807 650.5,297.5C 644.095,295.762 640.095,291.762 638.5,285.5C 638.556,282.889 639.556,280.722 641.5,279C 651.002,276.536 656.668,280.036 658.5,289.5C 663.95,290.527 665.784,288.193 664,282.5C 659.145,279.433 653.978,276.933 648.5,275C 642.563,268.796 643.563,263.963 651.5,260.5 Z"/></g>
<g><path style="opacity:1" fill="#e3e3e3" d="M 748.5,278.5 C 752.439,278.178 753.272,279.511 751,282.5C 748.399,285.696 745.232,287.029 741.5,286.5C 743.169,283.17 745.502,280.503 748.5,278.5 Z"/></g>
<g><path style="opacity:1" fill="#e4e4e4" d="M 778.5,278.5 C 782.331,278.249 785.664,279.416 788.5,282C 790.607,283.264 791.607,285.097 791.5,287.5C 785.424,288.098 780.758,285.931 777.5,281C 777.743,280.098 778.077,279.265 778.5,278.5 Z"/></g>
<g><path style="opacity:1" fill="#e6e6e6" d="M 644.5,283.5 C 649.543,283.877 652.21,286.543 652.5,291.5C 647.531,291.034 644.864,288.368 644.5,283.5 Z"/></g>
<g><path style="opacity:1" fill="#ededed" d="M 950.5,285.5 C 955.844,285.334 961.177,285.501 966.5,286C 966.957,286.414 967.291,286.914 967.5,287.5C 963.16,291.717 958.16,292.551 952.5,290C 950.963,288.89 950.297,287.39 950.5,285.5 Z"/></g>
<g><path style="opacity:1" fill="#0c0c0c" d="M 804.5,321.5 C 804.5,322.833 804.5,324.167 804.5,325.5C 799.5,325.5 794.5,325.5 789.5,325.5C 789.5,317.167 789.5,308.833 789.5,300.5C 791.167,300.5 792.833,300.5 794.5,300.5C 794.5,306.833 794.5,313.167 794.5,319.5C 797.518,319.335 800.518,319.502 803.5,320C 804.056,320.383 804.389,320.883 804.5,321.5 Z"/></g>
<g><path style="opacity:1" fill="#0d0d0d" d="M 962.5,303.5 C 974.475,308.774 977.308,317.108 971,328.5C 962.97,335.105 954.97,335.105 947,328.5C 940.911,318.436 942.911,310.436 953,304.5C 954.442,305.212 955.275,306.379 955.5,308C 953.288,310.554 951.455,313.387 950,316.5C 949.333,318.167 949.333,319.833 950,321.5C 955.744,321.348 961.577,321.515 967.5,322C 968.591,319.936 968.758,317.769 968,315.5C 964.263,312.361 962.43,308.361 962.5,303.5 Z"/></g>
<g><path style="opacity:1" fill="#9d9d9d" d="M 804.5,321.5 C 805.451,322.919 805.784,324.585 805.5,326.5C 799.974,326.821 794.64,326.488 789.5,325.5C 794.5,325.5 799.5,325.5 804.5,325.5C 804.5,324.167 804.5,322.833 804.5,321.5 Z"/></g>
<g><path style="opacity:0.934" fill="#0c0a01" d="M 109.5,355.5 C 111.193,356.475 112.693,357.808 114,359.5C 118.667,366.833 123.333,374.167 128,381.5C 138.195,368.819 151.362,361.486 167.5,359.5C 174.413,380.388 176.246,401.722 173,423.5C 171.2,431.401 168.7,439.067 165.5,446.5C 173.775,468.99 175.608,491.99 171,515.5C 169.618,521.648 167.451,527.481 164.5,533C 174.659,559.882 174.993,586.882 165.5,614C 172.469,638.786 172.136,663.453 164.5,688C 171.873,713.523 170.873,738.69 161.5,763.5C 168.913,788.377 167.913,812.877 158.5,837C 169.066,865.192 169.066,893.359 158.5,921.5C 166.023,946.256 166.356,971.089 159.5,996C 166.799,1021.26 166.132,1046.26 157.5,1071C 166.749,1097.87 166.749,1124.7 157.5,1151.5C 165.021,1173.48 166.354,1195.82 161.5,1218.5C 172.909,1241.95 177.075,1266.62 174,1292.5C 185.294,1312.34 190.294,1333.68 189,1356.5C 201.337,1373.84 208.337,1393.17 210,1414.5C 225.197,1429.38 235.864,1447.05 242,1467.5C 258.51,1480.34 270.843,1496.34 279,1515.5C 299.797,1527.46 315.63,1544.13 326.5,1565.5C 347.418,1575.12 364.085,1589.62 376.5,1609C 395.055,1616.36 410.888,1627.52 424,1642.5C 427.378,1647.42 430.878,1652.26 434.5,1657C 457.303,1665.31 475.469,1679.47 489,1699.5C 489.163,1696.82 490.496,1695.15 493,1694.5C 521.031,1698.92 544.198,1711.76 562.5,1733C 605.187,1740.04 635.354,1763.2 653,1802.5C 653.127,1808.2 652.627,1813.86 651.5,1819.5C 651.608,1820.44 651.941,1821.28 652.5,1822C 710.615,1846.22 768.615,1870.72 826.5,1895.5C 879.842,1872.83 933.175,1850.16 986.5,1827.5C 984.65,1821.29 984.15,1814.95 985,1808.5C 1002.33,1769.53 1032.16,1746.69 1074.5,1740C 1085.52,1726.99 1098.86,1716.99 1114.5,1710C 1124.96,1706.13 1135.62,1702.96 1146.5,1700.5C 1147.33,1702.5 1148.17,1704.5 1149,1706.5C 1159.58,1690.45 1173.41,1677.95 1190.5,1669C 1195.3,1667.1 1199.96,1664.94 1204.5,1662.5C 1217.86,1640.65 1236.53,1625.15 1260.5,1616C 1273.52,1596.4 1290.68,1581.57 1312,1571.5C 1322.51,1549.99 1338.17,1533.33 1359,1521.5C 1367.16,1502.34 1379.49,1486.34 1396,1473.5C 1402.13,1453.05 1412.79,1435.39 1428,1420.5C 1429.63,1398.93 1436.8,1379.43 1449.5,1362C 1447.16,1338.86 1452.16,1317.36 1464.5,1297.5C 1460.36,1272.2 1464.36,1248.2 1476.5,1225.5C 1470.99,1202.63 1472.32,1180.13 1480.5,1158C 1473.29,1140.12 1471.12,1121.62 1474,1102.5C 1475.51,1094.09 1477.35,1085.76 1479.5,1077.5C 1470.56,1052.64 1470.23,1027.64 1478.5,1002.5C 1470.48,977.585 1470.81,952.751 1479.5,928C 1469.22,900.004 1468.89,871.837 1478.5,843.5C 1469.96,819.238 1469.29,794.738 1476.5,770C 1466.98,745.047 1465.98,719.713 1473.5,694C 1464.53,669.481 1464.2,644.814 1472.5,620C 1463.29,593.394 1463.29,566.727 1472.5,540C 1460.63,511 1460.63,482 1472.5,453C 1459.55,424.001 1459.21,394.834 1471.5,365.5C 1487.01,368.671 1499.84,376.338 1510,388.5C 1514.61,378.933 1520.44,370.266 1527.5,362.5C 1538.89,368.886 1547.55,377.886 1553.5,389.5C 1561.24,380.424 1569.91,372.424 1579.5,365.5C 1590.57,375.852 1595.9,388.685 1595.5,404C 1594.9,421.806 1590.23,438.473 1581.5,454C 1596.72,471.295 1600.88,491.129 1594,513.5C 1591.42,522.232 1588.26,530.732 1584.5,539C 1598.04,555.707 1601.87,574.54 1596,595.5C 1594,603.009 1591.5,610.342 1588.5,617.5C 1598.44,630.917 1601.94,645.917 1599,662.5C 1597.4,672.221 1594.57,681.554 1590.5,690.5C 1601.65,706.372 1604.48,723.705 1599,742.5C 1597.03,749.408 1594.86,756.241 1592.5,763C 1605.06,780.94 1607.9,800.44 1601,821.5C 1598.52,829.96 1595.35,838.126 1591.5,846C 1600.3,855.942 1604.63,867.609 1604.5,881C 1603.62,896.855 1599.62,911.855 1592.5,926C 1604.22,939.722 1608.39,955.555 1605,973.5C 1603.18,983.3 1600.34,992.8 1596.5,1002C 1604.95,1014.98 1607.78,1029.15 1605,1044.5C 1602.91,1056.43 1599.41,1067.93 1594.5,1079C 1605.41,1094.62 1608.58,1111.79 1604,1130.5C 1601.68,1140.13 1598.51,1149.47 1594.5,1158.5C 1607.13,1177.1 1609.63,1197.1 1602,1218.5C 1598.99,1227.7 1595.49,1236.7 1591.5,1245.5C 1598.99,1265.64 1597.83,1285.31 1588,1304.5C 1585.67,1309.82 1582.84,1314.82 1579.5,1319.5C 1586.98,1339 1585.14,1357.67 1574,1375.5C 1570.39,1381.44 1566.39,1387.11 1562,1392.5C 1563.08,1399.25 1563.91,1406.08 1564.5,1413C 1564.12,1426.46 1559.96,1438.63 1552,1449.5C 1545.47,1457.87 1538.47,1465.87 1531,1473.5C 1533.64,1491.6 1528.97,1507.6 1517,1521.5C 1509.58,1529.76 1501.41,1537.09 1492.5,1543.5C 1490.33,1562.35 1481.99,1577.85 1467.5,1590C 1459.76,1595.96 1451.92,1601.79 1444,1607.5C 1441.38,1618.12 1436.21,1627.28 1428.5,1635C 1417.56,1644.39 1405.39,1651.89 1392,1657.5C 1388.17,1673.98 1379.01,1686.48 1364.5,1695C 1354.99,1700.44 1344.99,1704.61 1334.5,1707.5C 1330.5,1721.67 1322.17,1732.5 1309.5,1740C 1299.65,1745.5 1289.32,1749.84 1278.5,1753C 1275.07,1765.21 1268.4,1775.21 1258.5,1783C 1251.27,1787.78 1243.61,1791.78 1235.5,1795C 1222.61,1798.97 1209.61,1802.47 1196.5,1805.5C 1190.97,1817.2 1182.3,1825.7 1170.5,1831C 1156.35,1836.54 1141.68,1839.87 1126.5,1841C 1117.95,1860.29 1103.28,1871.95 1082.5,1876C 1063.02,1879.92 1043.36,1881.58 1023.5,1881C 1017.89,1878.86 1012.55,1876.19 1007.5,1873C 1005.12,1870.62 1003.62,1867.79 1003,1864.5C 962.24,1882.46 921.407,1900.3 880.5,1918C 909.126,1930.26 937.792,1942.43 966.5,1954.5C 975.168,1962.83 981.002,1972.83 984,1984.5C 984.932,2004.55 975.766,2011.38 956.5,2005C 952.156,2002.83 948.156,2000.16 944.5,1997C 942.126,1994.96 940.126,1992.63 938.5,1990C 901.05,1974.11 863.717,1957.94 826.5,1941.5C 784.617,1959.94 742.617,1978.11 700.5,1996C 692.569,2006.29 682.235,2012.46 669.5,2014.5C 658.879,2013.3 653.212,2007.3 652.5,1996.5C 654.509,1982.31 660.843,1970.48 671.5,1961C 705.167,1946.67 738.833,1932.33 772.5,1918C 726.833,1898.17 681.167,1878.33 635.5,1858.5C 627.878,1870.48 616.878,1875.81 602.5,1874.5C 581.596,1874.85 561.262,1871.68 541.5,1865C 527.277,1858.94 517.277,1848.78 511.5,1834.5C 496.737,1833.26 482.404,1830.1 468.5,1825C 455.56,1819.73 446.227,1810.73 440.5,1798C 418.214,1795.02 397.547,1787.68 378.5,1776C 373.966,1771.8 369.799,1767.3 366,1762.5C 363.098,1757.11 360.598,1751.61 358.5,1746C 339.679,1741.84 323.845,1732.68 311,1718.5C 307.489,1712.98 304.655,1707.14 302.5,1701C 282.452,1695.9 265.952,1685.4 253,1669.5C 249.329,1663.65 247.163,1657.32 246.5,1650.5C 226.973,1643.82 211.14,1632.16 199,1615.5C 196.413,1610.74 194.413,1605.74 193,1600.5C 181.935,1593.13 171.602,1584.79 162,1575.5C 152.004,1564.86 146.67,1552.19 146,1537.5C 129.747,1526.92 117.414,1512.92 109,1495.5C 105.93,1486.02 104.93,1476.35 106,1466.5C 94.7462,1455.58 85.4129,1443.25 78,1429.5C 71.8893,1415.82 71.3893,1401.98 76.5,1388C 66.8835,1376.27 59.7168,1363.11 55,1348.5C 52.1909,1336.22 53.3576,1324.38 58.5,1313C 46.2154,1296.15 40.3821,1277.31 41,1256.5C 41.8273,1250.35 43.6607,1244.52 46.5,1239C 39.5199,1225.21 34.6866,1210.71 32,1195.5C 29.4508,1179.39 33.2841,1165.06 43.5,1152.5C 36.4318,1137.96 32.4318,1122.63 31.5,1106.5C 31.5585,1093.73 35.5585,1082.39 43.5,1072.5C 33.7614,1053.89 30.2614,1034.23 33,1013.5C 34.3759,1006.92 37.2093,1001.08 41.5,996C 31.7253,976.591 29.5586,956.424 35,935.5C 37.7833,929.732 40.95,924.232 44.5,919C 35.7316,901.491 32.2316,882.991 34,863.5C 36.1013,854.467 39.9346,846.3 45.5,839C 36.0223,820.592 32.1889,801.092 34,780.5C 35.9679,771.565 39.8013,763.565 45.5,756.5C 35.9405,736.801 34.1072,716.467 40,695.5C 42.0045,691.351 44.1712,687.351 46.5,683.5C 39.9983,668.826 37.165,653.493 38,637.5C 38.9759,627.386 42.8093,618.552 49.5,611C 38.9943,590.992 36.8276,570.158 43,548.5C 45.6338,542.728 49.1338,537.561 53.5,533C 45.8118,518.1 41.4785,502.266 40.5,485.5C 40.514,470.814 45.514,458.147 55.5,447.5C 46.1125,429.619 41.6125,410.619 42,390.5C 43.6167,377.933 48.9501,367.267 58,358.5C 67.6301,365.796 76.2968,374.129 84,383.5C 89.9246,371.746 98.4246,362.412 109.5,355.5 Z"/></g>
<g><path style="opacity:1" fill="#fbf700" d="M 108.5,361.5 C 134.169,392.355 140.669,427.022 128,465.5C 127,466.5 126,467.5 125,468.5C 120.451,459.956 115.118,451.956 109,444.5C 101.088,449.076 94.4218,455.076 89,462.5C 82.2019,440.15 80.8686,417.484 85,394.5C 88.9434,380.571 96.7768,369.571 108.5,361.5 Z"/></g>
<g><path style="opacity:1" fill="#faf500" d="M 160.5,364.5 C 161.833,364.5 163.167,364.5 164.5,364.5C 168.049,377.246 170.049,390.246 170.5,403.5C 170.074,419.612 166.074,434.778 158.5,449C 148.816,452.257 140.316,457.423 133,464.5C 135.919,451.926 137.752,439.092 138.5,426C 137.914,412.733 134.914,400.067 129.5,388C 137.384,376.747 147.717,368.914 160.5,364.5 Z"/></g>
<g><path style="opacity:1" fill="#fbf600" d="M 57.5,365.5 C 58.9217,365.709 60.255,366.209 61.5,367C 69.0504,374.048 76.0504,381.548 82.5,389.5C 79.2914,398.38 77.9581,407.547 78.5,417C 78.7713,433.96 81.1046,450.627 85.5,467C 85.3417,469.149 84.5084,470.983 83,472.5C 77.3333,465.5 71,459.167 64,453.5C 56.8991,440.532 51.5657,426.865 48,412.5C 43.4643,395.127 46.6309,379.461 57.5,365.5 Z"/></g>
<g><path style="opacity:1" fill="#fbf600" d="M 1527.5,368.5 C 1544.16,378.715 1553.33,393.715 1555,413.5C 1556.29,432.514 1554.29,451.181 1549,469.5C 1543.57,462.063 1536.9,456.063 1529,451.5C 1522.61,458.412 1517.11,466.078 1512.5,474.5C 1511.52,474.023 1510.69,473.357 1510,472.5C 1501.56,448.145 1501.56,423.812 1510,399.5C 1514.86,388.509 1520.69,378.175 1527.5,368.5 Z"/></g>
<g><path style="opacity:1" fill="#fbf600" d="M 1473.5,371.5 C 1488.24,374.413 1499.58,382.246 1507.5,395C 1500.34,412.159 1497.84,429.993 1500,448.5C 1501.86,455.793 1503.19,463.127 1504,470.5C 1497.17,463.499 1489,458.665 1479.5,456C 1469.16,437.156 1465.33,416.989 1468,395.5C 1469.39,387.378 1471.22,379.378 1473.5,371.5 Z"/></g>
<g><path style="opacity:1" fill="#fbf600" d="M 1578.5,371.5 C 1591.24,386.021 1594.74,402.687 1589,421.5C 1585.11,434.605 1580.11,447.272 1574,459.5C 1566.99,465.344 1560.49,471.677 1554.5,478.5C 1553.29,477.126 1552.29,475.626 1551.5,474C 1557.56,453.596 1560.06,432.762 1559,411.5C 1557.84,406.511 1556.68,401.511 1555.5,396.5C 1556.09,394.734 1556.92,393.067 1558,391.5C 1564.73,384.603 1571.56,377.937 1578.5,371.5 Z"/></g>
<g><path style="opacity:1" fill="#fcf700" d="M 107.5,449.5 C 133.166,480.344 139.666,515.01 127,553.5C 126.333,554.167 125.667,554.833 125,555.5C 120.151,545.827 114.318,536.827 107.5,528.5C 98.9086,532.924 92.0753,539.258 87,547.5C 81.842,529.186 80.1754,510.52 82,491.5C 84.6576,473.834 93.1576,459.834 107.5,449.5 Z"/></g>
<g><path style="opacity:1" fill="#f9f400" d="M 160.5,452.5 C 162.776,452.756 163.943,454.09 164,456.5C 172.392,482.384 171.059,507.717 160,532.5C 150.052,534.807 141.385,539.474 134,546.5C 134.263,540.832 134.93,535.165 136,529.5C 138.637,511.022 136.137,493.356 128.5,476.5C 136.376,464.584 147.043,456.584 160.5,452.5 Z"/></g>
<g><path style="opacity:1" fill="#faf500" d="M 56.5,453.5 C 58.2554,454.072 59.9221,454.906 61.5,456C 68.9182,462.747 75.5849,470.08 81.5,478C 78.1642,486.852 76.8309,496.018 77.5,505.5C 77.3943,521.11 79.3943,536.444 83.5,551.5C 83.5629,553.481 82.8962,555.148 81.5,556.5C 74.6824,548.737 67.3491,541.403 59.5,534.5C 54.4431,523.828 50.2764,512.828 47,501.5C 42.3583,483.783 45.5249,467.783 56.5,453.5 Z"/></g>
<g><path style="opacity:1" fill="#fbf600" d="M 1528.5,456.5 C 1545.16,466.715 1554.33,481.715 1556,501.5C 1557.23,519.162 1555.4,536.496 1550.5,553.5C 1545.4,545.735 1538.74,539.735 1530.5,535.5C 1527.88,537.411 1525.71,539.745 1524,542.5C 1520.17,548.833 1516.33,555.167 1512.5,561.5C 1510.41,558.532 1508.91,555.199 1508,551.5C 1502.3,529.04 1503.63,507.04 1512,485.5C 1516.96,475.413 1522.46,465.747 1528.5,456.5 Z"/></g>
<g><path style="opacity:1" fill="#fbf600" d="M 1474.5,459.5 C 1489.25,462.423 1500.58,470.256 1508.5,483C 1501.1,500.107 1498.6,517.941 1501,536.5C 1502.55,542.129 1503.55,547.796 1504,553.5C 1496.77,546.632 1488.27,541.966 1478.5,539.5C 1469.63,522.253 1466.46,503.92 1469,484.5C 1470.36,476.046 1472.2,467.712 1474.5,459.5 Z"/></g>
<g><path style="opacity:1" fill="#fbf600" d="M 1578.5,460.5 C 1581.72,461.882 1584.22,464.215 1586,467.5C 1592.56,479.489 1594.22,492.156 1591,505.5C 1588.06,517.996 1583.72,529.996 1578,541.5C 1570,548.167 1562.67,555.5 1556,563.5C 1555.02,561.634 1554.52,559.634 1554.5,557.5C 1555.68,549.764 1557.18,542.098 1559,534.5C 1561.65,517.625 1560.82,500.958 1556.5,484.5C 1562.78,475.556 1570.11,467.556 1578.5,460.5 Z"/></g>
<g><path style="opacity:1" fill="#faf500" d="M 104.5,534.5 C 106.39,534.297 107.89,534.963 109,536.5C 119.239,550.315 126.239,565.648 130,582.5C 132.5,597.014 131.833,611.347 128,625.5C 126.49,627.208 124.99,628.874 123.5,630.5C 118.667,620.828 112.833,611.828 106,603.5C 97.0464,608.787 89.713,615.787 84,624.5C 78.0836,603.504 78.0836,582.504 84,561.5C 88.8094,550.871 95.6427,541.871 104.5,534.5 Z"/></g>
<g><path style="opacity:1" fill="#fbf600" d="M 158.5,536.5 C 159.5,536.5 160.5,536.5 161.5,536.5C 168.001,557.185 169.168,578.185 165,599.5C 164.023,602.102 162.856,604.602 161.5,607C 151.973,608.931 143.307,612.764 135.5,618.5C 135.891,606.561 135.391,594.561 134,582.5C 131.961,574.407 129.961,566.407 128,558.5C 135.843,547.839 146.01,540.506 158.5,536.5 Z"/></g>
<g><path style="opacity:1" fill="#faf600" d="M 55.5,537.5 C 64.3999,543.562 72.2332,550.896 79,559.5C 76.7562,569.649 75.5895,579.982 75.5,590.5C 75.9405,604.349 77.4405,618.016 80,631.5C 72.2244,621.554 63.0578,613.221 52.5,606.5C 45.874,592.204 43.0407,577.204 44,561.5C 45.4527,552.282 49.2861,544.282 55.5,537.5 Z"/></g>
<g><path style="opacity:1" fill="#fbf700" d="M 1530.5,540.5 C 1549.85,553.529 1558.85,571.862 1557.5,595.5C 1557.32,607.596 1556.15,619.596 1554,631.5C 1548.26,622.594 1540.76,615.594 1531.5,610.5C 1524.68,618.782 1518.85,627.782 1514,637.5C 1511.58,634.751 1509.58,631.751 1508,628.5C 1504.34,607.866 1506.34,587.866 1514,568.5C 1518.76,558.645 1524.26,549.312 1530.5,540.5 Z"/></g>
<g><path style="opacity:1" fill="#f9f400" d="M 1476.5,543.5 C 1491.14,546.645 1502.47,554.478 1510.5,567C 1506.99,574.516 1504.49,582.349 1503,590.5C 1502.5,602.522 1502.5,614.522 1503,626.5C 1495.28,620.059 1486.45,615.892 1476.5,614C 1475.48,613.481 1474.82,612.647 1474.5,611.5C 1467.51,588.624 1468.18,565.957 1476.5,543.5 Z"/></g>
<g><path style="opacity:1" fill="#faf500" d="M 1580.5,544.5 C 1587.16,549.788 1591.33,556.788 1593,565.5C 1593.72,574.536 1593.38,583.536 1592,592.5C 1589.53,599.417 1587.36,606.417 1585.5,613.5C 1582.86,613.954 1580.53,615.121 1578.5,617C 1570.67,623.5 1563.5,630.667 1557,638.5C 1559.68,624.527 1561.18,610.361 1561.5,596C 1562.18,586.333 1560.85,576.999 1557.5,568C 1560.67,564.167 1563.83,560.333 1567,556.5C 1571.69,552.635 1576.19,548.635 1580.5,544.5 Z"/></g>
<g><path style="opacity:1" fill="#fe0000" d="M 217.5,588.5 C 618.507,595.157 1019.51,602.157 1420.5,609.5C 1418.83,817.832 1417.33,1026.16 1416,1234.5C 1404.8,1327.89 1367.46,1408.89 1304,1477.5C 1256.22,1527.09 1203.05,1569.59 1144.5,1605C 1120.83,1619.5 1096.83,1633.5 1072.5,1647C 985.779,1691.78 899.279,1736.94 813,1782.5C 708.232,1734.21 607.399,1679.38 510.5,1618C 461.65,1586.5 415.65,1551.16 372.5,1512C 309.851,1454.99 264.351,1386.49 236,1306.5C 229.33,1286.49 222.663,1266.49 216,1246.5C 216.514,1027.17 217.014,807.835 217.5,588.5 Z"/></g>
<g><path style="opacity:1" fill="#fbf600" d="M 103.5,609.5 C 104.675,609.281 105.675,609.614 106.5,610.5C 126.161,635.626 133.327,663.959 128,695.5C 126.374,698.128 124.374,700.461 122,702.5C 117.151,692.827 111.318,683.827 104.5,675.5C 94.9149,680.708 87.4149,688.041 82,697.5C 77.7935,678.894 77.4601,660.228 81,641.5C 85.225,628.456 92.725,617.789 103.5,609.5 Z"/></g>
<g><path style="opacity:1" fill="#f9f400" d="M 157.5,611.5 C 159.776,611.756 160.943,613.09 161,615.5C 167.89,636.522 168.057,657.522 161.5,678.5C 151.485,680.668 142.318,684.668 134,690.5C 133.667,679.833 133.333,669.167 133,658.5C 131.565,650.497 129.065,642.83 125.5,635.5C 133.636,624.018 144.303,616.018 157.5,611.5 Z"/></g>
<g><path style="opacity:1" fill="#faf500" d="M 53.5,612.5 C 63.2826,619.115 71.6159,627.282 78.5,637C 75.1646,645.849 73.8312,655.016 74.5,664.5C 74.8296,677.624 75.9963,690.624 78,703.5C 70.8333,695 63,687.167 54.5,680C 52.8204,679.966 51.3204,679.799 50,679.5C 44.0935,665.061 41.7602,650.061 43,634.5C 45.1909,626.455 48.6909,619.121 53.5,612.5 Z"/></g>
<g><path style="opacity:1" fill="#faf500" d="M 1531.5,615.5 C 1544.58,623.285 1553.08,634.618 1557,649.5C 1560.45,667.886 1560.12,686.22 1556,704.5C 1550.16,695.491 1542.66,688.158 1533.5,682.5C 1526.53,690.432 1520.53,699.099 1515.5,708.5C 1511.48,706.322 1509.31,702.988 1509,698.5C 1505.63,679.885 1507.63,661.885 1515,644.5C 1520.02,634.453 1525.52,624.787 1531.5,615.5 Z"/></g>
<g><path style="opacity:1" fill="#fbf600" d="M 1477.5,618.5 C 1491.72,621.226 1502.89,628.559 1511,640.5C 1508.55,649.707 1506.22,659.04 1504,668.5C 1503.47,678.198 1503.47,687.865 1504,697.5C 1495.61,690.826 1486.28,687.16 1476,686.5C 1469.71,663.702 1470.21,641.035 1477.5,618.5 Z"/></g>
<g><path style="opacity:1" fill="#fbf600" d="M 1581.5,619.5 C 1584.76,620.927 1587.26,623.261 1589,626.5C 1596.05,640.25 1597.39,654.583 1593,669.5C 1591,675.489 1589,681.489 1587,687.5C 1585.77,685.053 1584.27,684.887 1582.5,687C 1574.7,693.802 1567.2,700.969 1560,708.5C 1562.02,696.473 1563.19,684.306 1563.5,672C 1563.95,662.226 1562.62,652.726 1559.5,643.5C 1565.78,634.556 1573.11,626.556 1581.5,619.5 Z"/></g>
<g><path style="opacity:1" fill="#010000" d="M 788.5,1160.5 C 790.607,1161.47 792.941,1161.8 795.5,1161.5C 795.5,1050.17 795.5,938.833 795.5,827.5C 790.305,827.179 785.305,827.513 780.5,828.5C 769.762,830.269 759.428,833.436 749.5,838C 720.65,853.534 692.317,869.868 664.5,887C 636.522,903.155 606.855,915.155 575.5,923C 527.169,935.006 484.169,925.006 446.5,893C 440.519,893.292 434.519,893.792 428.5,894.5C 417.941,894.451 410.774,889.451 407,879.5C 404.033,870.298 401.7,860.965 400,851.5C 390.737,849.893 381.57,847.726 372.5,845C 361.843,839.865 356.01,831.365 355,819.5C 354.685,811.423 354.519,803.423 354.5,795.5C 313.757,780.924 286.257,753.257 272,712.5C 342.96,745.558 417.127,755.725 494.5,743C 533.487,736.419 571.487,726.086 608.5,712C 633.26,702.081 657.76,691.581 682,680.5C 686.465,681.95 690.131,684.617 693,688.5C 707.36,713.41 716.86,740.077 721.5,768.5C 739.103,770.611 756.603,773.277 774,776.5C 782.253,776.687 789.919,774.687 797,770.5C 797.667,759.167 797.667,747.833 797,736.5C 785.942,725.059 777.942,711.725 773,696.5C 769.292,673.115 779.125,658.949 802.5,654C 851.117,649.097 867.284,669.597 851,715.5C 848.091,722.324 844.424,728.658 840,734.5C 839.455,746.851 839.789,759.184 841,771.5C 847.537,778.042 855.371,780.209 864.5,778C 877.83,773.467 891.497,770.467 905.5,769C 909.558,764.385 912.725,759.219 915,753.5C 919.333,737.167 923.667,720.833 928,704.5C 931.319,694.85 937.652,688.184 947,684.5C 962.615,687.49 978.115,690.99 993.5,695C 1035.01,707.614 1076.67,719.614 1118.5,731C 1187.49,747.635 1256.49,747.635 1325.5,731C 1338.95,727.71 1352.29,724.044 1365.5,720C 1367.17,719.333 1368.83,719.333 1370.5,720C 1362.03,748.138 1345.03,769.471 1319.5,784C 1306.62,790.858 1293.45,797.025 1280,802.5C 1281.69,808.797 1282.86,815.297 1283.5,822C 1283.37,836.589 1276.37,846.256 1262.5,851C 1251.91,854.48 1241.24,857.647 1230.5,860.5C 1229.69,871.12 1229.19,881.787 1229,892.5C 1226.71,901.446 1220.88,905.946 1211.5,906C 1199.93,906.911 1188.43,906.411 1177,904.5C 1173.35,907.501 1170.35,911.168 1168,915.5C 1153.91,931.203 1136.24,938.536 1115,937.5C 1093.38,936.709 1072.54,932.209 1052.5,924C 1035.16,917.109 1018.16,909.442 1001.5,901C 962.308,879.236 922.642,858.236 882.5,838C 868.709,831.471 854.376,826.638 839.5,823.5C 836.901,936.839 834.401,1050.17 832,1163.5C 867.079,1157.6 900.912,1147.44 933.5,1133C 970.514,1113.8 983.681,1083.96 973,1043.5C 967.164,1024.63 958.664,1007.13 947.5,991C 913.66,988.983 893.327,971.483 886.5,938.5C 883.177,939.757 879.844,939.757 876.5,938.5C 879.447,937.679 882.447,937.179 885.5,937C 880.979,937.122 876.979,935.789 873.5,933C 874,932.5 874.5,932 875,931.5C 882.578,936.392 889.078,935.225 894.5,928C 915.763,914.755 936.429,915.755 956.5,931C 976.308,952.463 993.808,975.63 1009,1000.5C 1018.49,1016.8 1025.16,1034.13 1029,1052.5C 1033.42,1080.51 1026.75,1105.51 1009,1127.5C 1000.83,1137 992,1145.83 982.5,1154C 959.167,1172 935.833,1190 912.5,1208C 929.333,1219.5 943.5,1233.67 955,1250.5C 968.932,1273.4 968.932,1296.4 955,1319.5C 945.004,1333.64 933.504,1346.47 920.5,1358C 911.5,1365 902.5,1372 893.5,1379C 905.533,1402.62 907.7,1427.12 900,1452.5C 895.25,1463.5 888.417,1473 879.5,1481C 869.888,1488.45 859.888,1495.29 849.5,1501.5C 858.262,1533.19 852.262,1561.69 831.5,1587C 838.706,1594.54 845.54,1602.37 852,1610.5C 854.267,1613.7 855.934,1617.03 857,1620.5C 856.439,1621.02 855.772,1621.36 855,1621.5C 843.167,1615.16 832.001,1607.83 821.5,1599.5C 819.061,1619.1 817.228,1638.77 816,1658.5C 813.43,1665.13 810.763,1665.13 808,1658.5C 807.419,1638.79 806.252,1619.13 804.5,1599.5C 793.547,1609.31 781.547,1617.65 768.5,1624.5C 768.167,1623.83 767.833,1623.17 767.5,1622.5C 769.063,1619.04 770.896,1615.71 773,1612.5C 778.979,1605.02 785.145,1597.69 791.5,1590.5C 777.525,1582.66 769.692,1570.66 768,1554.5C 765.113,1535.39 767.946,1517.22 776.5,1500C 776.241,1498.74 775.574,1497.74 774.5,1497C 726.302,1470.73 712.468,1432.23 733,1381.5C 711.41,1368.86 693.077,1352.53 678,1332.5C 663.743,1306.68 664.077,1281.02 679,1255.5C 689.904,1237.71 702.737,1221.38 717.5,1206.5C 690.647,1191.57 665.313,1174.41 641.5,1155C 581.211,1102.08 576.711,1044.91 628,983.5C 643.474,968.358 658.641,952.858 673.5,937C 682.297,929.266 692.297,923.6 703.5,920C 717.362,917.706 730.362,920.04 742.5,927C 747.689,927.985 752.689,927.485 757.5,925.5C 758.711,926.274 758.711,927.107 757.5,928C 753.916,929.073 750.25,929.74 746.5,930C 749.77,930.995 753.103,931.828 756.5,932.5C 755.167,932.833 753.833,933.167 752.5,933.5C 749.418,933.121 746.418,932.454 743.5,931.5C 744.403,950.19 737.403,965.023 722.5,976C 712.178,979.663 701.844,983.33 691.5,987C 669.923,1004.24 655.09,1026.08 647,1052.5C 643.634,1076.74 650.8,1097.24 668.5,1114C 687.808,1130.66 709.808,1142.66 734.5,1150C 752.081,1155.48 770.081,1158.98 788.5,1160.5 Z"/></g>
<g><path style="opacity:1" fill="#fbf600" d="M 102.5,681.5 C 115.066,694.959 123.232,710.959 127,729.5C 129.526,743.7 128.859,757.7 125,771.5C 123,773.5 121,775.5 119,777.5C 114.151,767.827 108.318,758.827 101.5,750.5C 93.4544,755.592 86.621,761.925 81,769.5C 75.4532,750.333 75.1198,731 80,711.5C 84.3529,699.001 91.8529,689.001 102.5,681.5 Z"/></g>
<g><path style="opacity:1" fill="#fbf600" d="M 153.5,684.5 C 155.766,684.141 157.599,684.808 159,686.5C 166.094,709.167 166.261,731.833 159.5,754.5C 149.547,755.312 140.547,758.645 132.5,764.5C 134.217,744.97 131.55,725.97 124.5,707.5C 131.516,696.483 141.183,688.816 153.5,684.5 Z"/></g>
<g><path style="opacity:1" fill="#fbf600" d="M 52.5,684.5 C 62.3475,690.848 70.3475,699.014 76.5,709C 71.0654,731.054 71.3987,753.054 77.5,775C 77.2196,776.395 76.5529,777.562 75.5,778.5C 67.4668,769.466 58.8001,761.133 49.5,753.5C 42.874,739.204 40.0407,724.204 41,708.5C 42.9764,699.549 46.8097,691.549 52.5,684.5 Z"/></g>
<g><path style="opacity:1" fill="#fbf600" d="M 1533.5,687.5 C 1553,700.664 1562,719.164 1560.5,743C 1560.65,754.319 1559.48,765.486 1557,776.5C 1551.27,768.936 1544.44,762.603 1536.5,757.5C 1529.53,765.432 1523.53,774.099 1518.5,783.5C 1515.48,781.312 1512.98,778.645 1511,775.5C 1507.38,754.879 1509.38,734.879 1517,715.5C 1521.76,705.645 1527.26,696.312 1533.5,687.5 Z"/></g>
<g><path style="opacity:1" fill="#f9f400" d="M 1479.5,690.5 C 1493.79,694.138 1505.12,701.971 1513.5,714C 1510,721.509 1507.5,729.342 1506,737.5C 1505.42,749.207 1505.42,760.874 1506,772.5C 1499.03,766.725 1491.03,763.058 1482,761.5C 1480.89,761.585 1479.89,761.919 1479,762.5C 1470.33,738.472 1470.5,714.472 1479.5,690.5 Z"/></g>
<g><path style="opacity:1" fill="#faf500" d="M 1583.5,691.5 C 1585.02,691.511 1586.18,692.177 1587,693.5C 1596.56,707.487 1599.23,722.821 1595,739.5C 1593.07,746.626 1590.74,753.626 1588,760.5C 1578.37,767.796 1569.7,776.129 1562,785.5C 1561.08,783.966 1560.58,782.299 1560.5,780.5C 1564.13,763.338 1565.3,746.005 1564,728.5C 1562.99,724.117 1561.82,719.784 1560.5,715.5C 1567.51,706.82 1575.18,698.82 1583.5,691.5 Z"/></g>
<g><path style="opacity:1" fill="#fbf600" d="M 99.5,756.5 C 125.771,786.756 132.271,821.089 119,859.5C 113.897,850.279 108.063,841.612 101.5,833.5C 92.5736,838.259 85.4069,844.926 80,853.5C 73.6,834.279 71.9334,814.612 75,794.5C 78.2301,778.477 86.3968,765.81 99.5,756.5 Z"/></g>
<g><path style="opacity:1" fill="#fbf600" d="M 150.5,759.5 C 152.766,759.141 154.599,759.808 156,761.5C 162.067,781.228 163.067,801.228 159,821.5C 157.118,826.988 154.951,832.321 152.5,837.5C 142.513,840.574 133.68,845.574 126,852.5C 126.557,847.165 127.557,841.832 129,836.5C 129.667,827.833 129.667,819.167 129,810.5C 127.247,800.267 124.913,790.267 122,780.5C 129.481,770.684 138.981,763.684 150.5,759.5 Z"/></g>
<g><path style="opacity:1" fill="#fbf600" d="M 49.5,759.5 C 58.3374,766.163 66.1708,773.83 73,782.5C 72.1872,788.11 71.1872,793.777 70,799.5C 69.3333,808.167 69.3333,816.833 70,825.5C 72.0145,837.562 74.0145,849.562 76,861.5C 68.2968,852.129 59.6301,843.796 50,836.5C 41.2313,819.873 37.2313,802.206 38,783.5C 39.9764,774.549 43.8097,766.549 49.5,759.5 Z"/></g>
<g><path style="opacity:1" fill="#fbf600" d="M 1536.5,762.5 C 1556,775.664 1565,794.164 1563.5,818C 1563.64,832.433 1561.8,846.6 1558,860.5C 1552.55,851.718 1545.22,845.051 1536,840.5C 1529.21,848.466 1523.38,857.133 1518.5,866.5C 1516.14,859.329 1514.3,851.996 1513,844.5C 1510.51,825.821 1512.84,807.821 1520,790.5C 1524.76,780.645 1530.26,771.312 1536.5,762.5 Z"/></g>
<g><path style="opacity:1" fill="#f9f500" d="M 1482.5,765.5 C 1497,769.078 1508.34,777.078 1516.5,789.5C 1508.84,806.694 1506.34,824.694 1509,843.5C 1509.85,848.535 1510.52,853.535 1511,858.5C 1503.12,851.961 1494.29,847.128 1484.5,844C 1473.29,818.143 1472.62,791.977 1482.5,765.5 Z"/></g>
<g><path style="opacity:1" fill="#faf500" d="M 1586.5,766.5 C 1593.16,771.788 1597.33,778.788 1599,787.5C 1600.6,806.893 1596.93,825.227 1588,842.5C 1578.98,850.524 1570.31,858.858 1562,867.5C 1563.14,857.139 1564.8,846.806 1567,836.5C 1567.67,825.167 1567.67,813.833 1567,802.5C 1566.02,798.44 1564.86,794.44 1563.5,790.5C 1570.51,781.82 1578.18,773.82 1586.5,766.5 Z"/></g>
<g><path style="opacity:1" fill="#c00000" d="M 780.5,828.5 C 785.305,827.513 790.305,827.179 795.5,827.5C 795.5,938.833 795.5,1050.17 795.5,1161.5C 792.941,1161.8 790.607,1161.47 788.5,1160.5C 790.5,1160.5 792.5,1160.5 794.5,1160.5C 794.5,1049.83 794.5,939.167 794.5,828.5C 789.833,828.5 785.167,828.5 780.5,828.5 Z"/></g>
<g><path style="opacity:1" fill="#fbf600" d="M 98.5,839.5 C 100.39,839.297 101.89,839.963 103,841.5C 124.187,869.433 130.52,900.433 122,934.5C 121.218,937.076 119.718,939.076 117.5,940.5C 112.41,931.316 106.577,922.649 100,914.5C 91.7533,919.411 84.7533,925.745 79,933.5C 77.8372,931.715 77.1705,929.715 77,927.5C 75.2433,916.888 74.0767,906.221 73.5,895.5C 72.6597,872.53 80.9931,853.863 98.5,839.5 Z"/></g>
<g><path style="opacity:1" fill="#fbf600" d="M 152.5,841.5 C 154.124,841.36 155.29,842.027 156,843.5C 162.003,863.263 163.003,883.263 159,903.5C 157.558,908.495 155.724,913.328 153.5,918C 143.49,920.255 134.657,924.755 127,931.5C 127.008,927.117 127.674,922.784 129,918.5C 129.667,909.5 129.667,900.5 129,891.5C 126.779,882.04 124.446,872.707 122,863.5C 129.843,852.839 140.01,845.506 152.5,841.5 Z"/></g>
<g><path style="opacity:1" fill="#fbf600" d="M 49.5,842.5 C 59.1532,848.82 67.1532,856.82 73.5,866.5C 69.2472,882.982 68.4139,899.649 71,916.5C 72.6906,923.786 74.1906,931.119 75.5,938.5C 75.523,940.067 75.023,941.4 74,942.5C 66.3333,933.5 58,925.167 49,917.5C 42.6604,903.474 38.827,888.808 37.5,873.5C 37.5851,861.567 41.5851,851.234 49.5,842.5 Z"/></g>
<g><path style="opacity:1" fill="#fcf700" d="M 1536.5,845.5 C 1555.83,858.5 1564.83,876.834 1563.5,900.5C 1563.31,913.986 1561.81,927.319 1559,940.5C 1553.46,933.293 1546.96,927.126 1539.5,922C 1538.5,921.333 1537.5,921.333 1536.5,922C 1530.61,930.231 1525.11,938.731 1520,947.5C 1517.31,945.105 1515.64,942.105 1515,938.5C 1508.27,910.47 1512.27,884.136 1527,859.5C 1530.39,854.952 1533.55,850.286 1536.5,845.5 Z"/></g>
<g><path style="opacity:1" fill="#faf500" d="M 1482.5,848.5 C 1497.25,851.423 1508.58,859.256 1516.5,872C 1513.31,879.58 1510.81,887.413 1509,895.5C 1508.3,909.561 1508.63,923.561 1510,937.5C 1502.19,931.18 1493.36,926.846 1483.5,924.5C 1476.88,907.102 1474.71,889.102 1477,870.5C 1478.21,862.981 1480.05,855.647 1482.5,848.5 Z"/></g>
<g><path style="opacity:1" fill="#faf600" d="M 1585.5,849.5 C 1587.9,849.393 1589.74,850.393 1591,852.5C 1599.57,866.068 1601.9,880.735 1598,896.5C 1595.39,906.499 1591.89,916.166 1587.5,925.5C 1578.84,932.493 1570.84,940.16 1563.5,948.5C 1563.17,947.167 1562.83,945.833 1562.5,944.5C 1567.15,925.432 1568.65,906.098 1567,886.5C 1566.54,881.808 1565.37,877.308 1563.5,873C 1569.98,864.352 1577.32,856.519 1585.5,849.5 Z"/></g>
<g><path style="opacity:1" fill="#fbf600" d="M 98.5,919.5 C 120.249,944.943 128.083,974.276 122,1007.5C 120.959,1009.59 119.459,1011.25 117.5,1012.5C 112.266,1003.1 106.433,994.102 100,985.5C 90,991.5 82,999.5 76,1009.5C 72.3742,991.604 71.7076,973.604 74,955.5C 77.991,940.475 86.1577,928.475 98.5,919.5 Z"/></g>
<g><path style="opacity:1" fill="#faf500" d="M 152.5,922.5 C 153.966,923.347 154.8,924.68 155,926.5C 161.973,947.362 162.14,968.195 155.5,989C 145.533,991.152 136.533,995.319 128.5,1001.5C 127.668,990.849 127.168,980.182 127,969.5C 125.502,961.341 123.002,953.508 119.5,946C 127.845,934.185 138.845,926.351 152.5,922.5 Z"/></g>
<g><path style="opacity:1" fill="#faf500" d="M 47.5,923.5 C 49.2554,924.072 50.9221,924.906 52.5,926C 59.9182,932.747 66.5849,940.08 72.5,948C 69.1653,956.849 67.832,966.016 68.5,975.5C 68.8094,987.248 69.6427,998.914 71,1010.5C 64.5877,1002.88 57.421,996.044 49.5,990C 47.6133,989.837 46.1133,990.671 45,992.5C 37.9267,977.253 35.26,961.253 37,944.5C 39.0105,936.684 42.5105,929.684 47.5,923.5 Z"/></g>
<g><path style="opacity:1" fill="#fbf600" d="M 1537.5,926.5 C 1550.58,934.285 1559.08,945.618 1563,960.5C 1566.74,978.988 1566.08,997.322 1561,1015.5C 1555.31,1005.64 1547.47,997.975 1537.5,992.5C 1530.68,1000.83 1524.85,1009.83 1520,1019.5C 1516.28,1015.65 1514.28,1010.98 1514,1005.5C 1512.06,988.217 1514.39,971.551 1521,955.5C 1525.96,945.413 1531.46,935.747 1537.5,926.5 Z"/></g>
<g><path style="opacity:1" fill="#fbf600" d="M 1483.5,929.5 C 1498.24,932.413 1509.58,940.246 1517.5,953C 1509.92,971.125 1507.42,989.958 1510,1009.5C 1501.95,1002.06 1492.45,997.726 1481.5,996.5C 1475.72,974.013 1476.39,951.679 1483.5,929.5 Z"/></g>
<g><path style="opacity:1" fill="#faf500" d="M 1588.5,929.5 C 1598.75,940.422 1602.92,953.422 1601,968.5C 1599.63,979.046 1596.63,989.046 1592,998.5C 1590.87,996.789 1589.37,996.289 1587.5,997C 1579.98,1003.52 1572.81,1010.36 1566,1017.5C 1568.19,1006.17 1569.35,994.672 1569.5,983C 1569.33,978.5 1569.17,974 1569,969.5C 1567.82,963.793 1566.82,958.126 1566,952.5C 1573.03,944.302 1580.53,936.635 1588.5,929.5 Z"/></g>
<g><path style="opacity:1" fill="#fbf600" d="M 97.5,991.5 C 99.0174,991.511 100.184,992.177 101,993.5C 122.856,1021.96 129.189,1053.63 120,1088.5C 119.417,1090 118.584,1091.33 117.5,1092.5C 112.667,1082.83 106.833,1073.83 100,1065.5C 91.0464,1070.79 83.713,1077.79 78,1086.5C 75.2635,1078.09 73.5969,1069.42 73,1060.5C 68.0352,1032.55 76.2019,1009.55 97.5,991.5 Z"/></g>
<g><path style="opacity:1" fill="#faf500" d="M 149.5,994.5 C 151.144,994.286 152.644,994.62 154,995.5C 163.132,1020.58 162.632,1045.42 152.5,1070C 142.49,1072.25 133.657,1076.75 126,1083.5C 127.435,1069.24 127.768,1054.91 127,1040.5C 125.578,1032.48 123.078,1024.81 119.5,1017.5C 127.237,1006.75 137.237,999.082 149.5,994.5 Z"/></g>
<g><path style="opacity:1" fill="#faf500" d="M 47.5,995.5 C 57.5361,1001.36 65.8694,1009.2 72.5,1019C 69.1209,1028.52 67.7876,1038.36 68.5,1048.5C 68.6511,1063.08 70.6511,1077.41 74.5,1091.5C 74.3333,1092.17 74.1667,1092.83 74,1093.5C 66.44,1083.43 57.2733,1075.43 46.5,1069.5C 43.5706,1060.54 40.7372,1051.54 38,1042.5C 33.3945,1025.1 36.5612,1009.43 47.5,995.5 Z"/></g>
<g><path style="opacity:1" fill="#fbf600" d="M 1537.5,998.5 C 1543.26,1000.73 1548.09,1004.4 1552,1009.5C 1561.52,1022.4 1566.02,1036.9 1565.5,1053C 1565.16,1066.73 1563.32,1080.23 1560,1093.5C 1554.26,1084.59 1546.76,1077.59 1537.5,1072.5C 1530.68,1080.78 1524.85,1089.78 1520,1099.5C 1510.81,1074.33 1511.48,1049.33 1522,1024.5C 1526.6,1015.42 1531.76,1006.76 1537.5,998.5 Z"/></g>
<g><path style="opacity:1" fill="#faf600" d="M 1483.5,1000.5 C 1497.4,1003.7 1508.56,1011.03 1517,1022.5C 1514.09,1032.27 1511.75,1042.27 1510,1052.5C 1509.48,1065.27 1510.15,1077.94 1512,1090.5C 1504.26,1083.88 1495.43,1079.21 1485.5,1076.5C 1478.14,1060.65 1475.64,1043.99 1478,1026.5C 1479.51,1017.76 1481.35,1009.09 1483.5,1000.5 Z"/></g>
<g><path style="opacity:1" fill="#faf500" d="M 1587.5,1001.5 C 1589.37,1001.86 1590.87,1002.86 1592,1004.5C 1601.82,1018.94 1604.16,1034.6 1599,1051.5C 1596.53,1059.23 1593.87,1066.9 1591,1074.5C 1581.16,1081.92 1572.16,1090.26 1564,1099.5C 1565.44,1088.86 1567.11,1078.19 1569,1067.5C 1570.37,1053.28 1569.2,1039.28 1565.5,1025.5C 1567.44,1022.39 1569.61,1019.39 1572,1016.5C 1577.15,1011.37 1582.31,1006.37 1587.5,1001.5 Z"/></g>
<g><path style="opacity:1" fill="#fbf600" d="M 97.5,1071.5 C 99.371,1071.86 100.871,1072.86 102,1074.5C 122.005,1101.52 128.339,1131.52 121,1164.5C 120.257,1167.51 118.924,1170.18 117,1172.5C 112.151,1162.83 106.318,1153.83 99.5,1145.5C 90.217,1150.45 82.8836,1157.45 77.5,1166.5C 72.3616,1147.1 71.195,1127.43 74,1107.5C 77.5886,1092.64 85.4219,1080.64 97.5,1071.5 Z"/></g>
<g><path style="opacity:1" fill="#f9f400" d="M 148.5,1074.5 C 150.467,1074.26 152.301,1074.59 154,1075.5C 163.137,1100.3 162.637,1124.8 152.5,1149C 142.554,1151.14 133.887,1155.64 126.5,1162.5C 126.167,1161.67 125.833,1160.83 125.5,1160C 127.453,1146.9 127.953,1133.73 127,1120.5C 125.578,1112.48 123.078,1104.81 119.5,1097.5C 126.789,1086.71 136.456,1079.04 148.5,1074.5 Z"/></g>
<g><path style="opacity:1" fill="#faf500" d="M 47.5,1074.5 C 57.2826,1081.12 65.6159,1089.28 72.5,1099C 69.1209,1108.52 67.7876,1118.36 68.5,1128.5C 68.6511,1143.08 70.6511,1157.41 74.5,1171.5C 74.1667,1172.17 73.8333,1172.83 73.5,1173.5C 65.448,1164.28 56.6147,1155.95 47,1148.5C 38.578,1132.15 35.2447,1114.81 37,1096.5C 39.1909,1088.45 42.6909,1081.12 47.5,1074.5 Z"/></g>
<g><path style="opacity:1" fill="#faf500" d="M 1537.5,1078.5 C 1548.99,1084.17 1556.82,1093.17 1561,1105.5C 1565.75,1121.9 1566.75,1138.57 1564,1155.5C 1562.88,1161.57 1561.55,1167.57 1560,1173.5C 1555.53,1165.4 1549.36,1158.9 1541.5,1154C 1540.24,1153.02 1538.91,1152.68 1537.5,1153C 1531.21,1161.07 1525.55,1169.57 1520.5,1178.5C 1518.58,1177 1517.41,1175 1517,1172.5C 1511.02,1149.24 1512.69,1126.57 1522,1104.5C 1526.42,1095.31 1531.59,1086.64 1537.5,1078.5 Z"/></g>
<g><path style="opacity:1" fill="#fbf600" d="M 1483.5,1080.5 C 1497.38,1083.69 1508.55,1091.03 1517,1102.5C 1514.06,1112.25 1511.73,1122.25 1510,1132.5C 1509.35,1143.21 1509.85,1153.88 1511.5,1164.5C 1511.17,1165.83 1510.83,1167.17 1510.5,1168.5C 1503.27,1162.22 1494.94,1158.05 1485.5,1156C 1477.93,1140.04 1475.43,1123.21 1478,1105.5C 1479.36,1097.04 1481.2,1088.71 1483.5,1080.5 Z"/></g>
<g><path style="opacity:1" fill="#fbf600" d="M 1587.5,1081.5 C 1589.37,1081.86 1590.87,1082.86 1592,1084.5C 1601.82,1098.94 1604.16,1114.6 1599,1131.5C 1596.53,1139.23 1593.87,1146.9 1591,1154.5C 1581.04,1162.13 1572.04,1170.8 1564,1180.5C 1565.33,1169.51 1567,1158.51 1569,1147.5C 1570.46,1133.23 1569.29,1119.23 1565.5,1105.5C 1567.1,1102.72 1568.94,1100.05 1571,1097.5C 1576.4,1091.94 1581.9,1086.6 1587.5,1081.5 Z"/></g>
<g><path style="opacity:1" fill="#fbf700" d="M 96.5,1151.5 C 97.8221,1151.33 98.9887,1151.66 100,1152.5C 112.314,1168.13 119.98,1185.8 123,1205.5C 123.667,1215.17 123.667,1224.83 123,1234.5C 122.83,1236.71 122.163,1238.71 121,1240.5C 115.323,1233.99 109.489,1227.66 103.5,1221.5C 93.0778,1229.66 85.5778,1240 81,1252.5C 79.1111,1250.52 77.7777,1248.18 77,1245.5C 72.8346,1227.72 71.5013,1209.72 73,1191.5C 75.9749,1175.2 83.8083,1161.87 96.5,1151.5 Z"/></g>
<g><path style="opacity:1" fill="#fbf600" d="M 149.5,1153.5 C 151.451,1153.23 152.951,1153.89 154,1155.5C 160.094,1175.56 161.094,1195.9 157,1216.5C 150.26,1220.23 143.76,1224.4 137.5,1229C 133.065,1233.38 129.232,1238.21 126,1243.5C 126.098,1238.14 126.764,1232.81 128,1227.5C 128.981,1210.04 126.148,1193.2 119.5,1177C 127.043,1165.95 137.043,1158.12 149.5,1153.5 Z"/></g>
<g><path style="opacity:1" fill="#fbf600" d="M 46.5,1155.5 C 49.1398,1155.95 51.4732,1157.12 53.5,1159C 59.699,1164.86 65.5323,1171.03 71,1177.5C 69.1264,1187.35 68.2931,1197.35 68.5,1207.5C 68.6667,1212.83 68.8333,1218.17 69,1223.5C 70.531,1230.47 71.531,1237.47 72,1244.5C 65.636,1239.97 59.136,1235.64 52.5,1231.5C 51.6667,1232.5 50.8333,1233.5 50,1234.5C 39.3422,1216.22 35.0089,1196.55 37,1175.5C 38.8572,1168.12 42.0238,1161.46 46.5,1155.5 Z"/></g>
<g><path style="opacity:1" fill="#faf600" d="M 1538.5,1157.5 C 1552.27,1166.47 1560.77,1179.14 1564,1195.5C 1567.01,1216.21 1565.34,1236.54 1559,1256.5C 1558,1257.5 1557,1258.5 1556,1259.5C 1552.29,1247.15 1545.46,1236.98 1535.5,1229C 1534.5,1228.33 1533.5,1228.33 1532.5,1229C 1526.62,1235.21 1521.12,1241.71 1516,1248.5C 1509.94,1221.88 1513.94,1196.88 1528,1173.5C 1531.33,1168.01 1534.83,1162.68 1538.5,1157.5 Z"/></g>
<g><path style="opacity:1" fill="#faf500" d="M 1483.5,1160.5 C 1498.58,1162.91 1510.25,1170.57 1518.5,1183.5C 1513.97,1192.67 1511.13,1202.33 1510,1212.5C 1509.3,1224.58 1509.63,1236.58 1511,1248.5C 1503.75,1237.45 1493.92,1229.62 1481.5,1225C 1479.54,1220.07 1478.37,1214.9 1478,1209.5C 1477.33,1202.17 1477.33,1194.83 1478,1187.5C 1479.36,1178.38 1481.2,1169.38 1483.5,1160.5 Z"/></g>
<g><path style="opacity:1" fill="#fbf600" d="M 1588.5,1161.5 C 1597.29,1169.59 1601.62,1179.76 1601.5,1192C 1600.37,1209.21 1595.71,1225.38 1587.5,1240.5C 1586.38,1239.17 1585.05,1238.67 1583.5,1239C 1577.33,1242.92 1571.33,1247.09 1565.5,1251.5C 1565.17,1251 1564.83,1250.5 1564.5,1250C 1568.54,1233.41 1570.04,1216.57 1569,1199.5C 1567.91,1194.98 1566.74,1190.48 1565.5,1186C 1566.32,1184.51 1567.15,1183.01 1568,1181.5C 1574.73,1174.6 1581.56,1167.94 1588.5,1161.5 Z"/></g>
<g><path style="opacity:1" fill="#f9f400" d="M 154.5,1222.5 C 155.833,1222.5 157.167,1222.5 158.5,1222.5C 165.397,1237.92 169.397,1254.09 170.5,1271C 170.468,1275.56 169.968,1280.06 169,1284.5C 168,1283.17 167,1281.83 166,1280.5C 156.198,1284.97 148.198,1291.63 142,1300.5C 141.14,1282.36 136.306,1265.36 127.5,1249.5C 133.52,1237.48 142.52,1228.48 154.5,1222.5 Z"/></g>
<g><path style="opacity:1" fill="#fbf600" d="M 102.5,1226.5 C 119.219,1241.75 130.386,1260.41 136,1282.5C 137.312,1291.13 137.645,1299.8 137,1308.5C 136.138,1310.09 135.471,1311.75 135,1313.5C 127.6,1305.43 119.6,1298.1 111,1291.5C 102.391,1299.79 96.7239,1309.79 94,1321.5C 85.2756,1301.77 81.9423,1281.1 84,1259.5C 87.0153,1246.67 93.1819,1235.67 102.5,1226.5 Z"/></g>
<g><path style="opacity:1" fill="#fd0000" d="M 792.5,1228.5 C 795.5,1228.5 798.5,1228.5 801.5,1228.5C 801.833,1267.84 801.5,1307.17 800.5,1346.5C 770.541,1351.68 745.041,1343.35 724,1321.5C 709.254,1299.18 710.254,1277.51 727,1256.5C 735.084,1248.2 744.584,1242.04 755.5,1238C 767.682,1233.71 780.015,1230.54 792.5,1228.5 Z"/></g>
<g><path style="opacity:1" fill="#fd0000" d="M 831.5,1227.5 C 850.783,1228.21 869.116,1232.71 886.5,1241C 912.053,1257.32 920.886,1280.15 913,1309.5C 902.787,1329.87 886.62,1343.04 864.5,1349C 853.253,1351.61 841.92,1352.11 830.5,1350.5C 830.167,1344.67 829.833,1338.83 829.5,1333C 830.479,1297.84 831.146,1262.67 831.5,1227.5 Z"/></g>
<g><path style="opacity:1" fill="#faf500" d="M 1479.5,1228.5 C 1493.61,1233.61 1503.94,1242.94 1510.5,1256.5C 1501.01,1271.77 1495.85,1288.44 1495,1306.5C 1489.36,1298.52 1482.19,1292.35 1473.5,1288C 1472.36,1287.25 1471.36,1287.42 1470.5,1288.5C 1469.92,1290 1469.08,1291.33 1468,1292.5C 1466.43,1277.54 1467.76,1262.88 1472,1248.5C 1474.41,1241.77 1476.91,1235.1 1479.5,1228.5 Z"/></g>
<g><path style="opacity:1" fill="#faf500" d="M 1533.5,1233.5 C 1540.96,1238.81 1546.46,1245.81 1550,1254.5C 1554.7,1268.21 1555.7,1282.21 1553,1296.5C 1550.78,1307.05 1547.78,1317.38 1544,1327.5C 1540.72,1316.26 1534.88,1306.59 1526.5,1298.5C 1517.92,1304.57 1510.09,1311.57 1503,1319.5C 1501.75,1318 1500.75,1316.33 1500,1314.5C 1498.47,1290.27 1505.14,1268.6 1520,1249.5C 1524.71,1244.29 1529.21,1238.96 1533.5,1233.5 Z"/></g>
<g><path style="opacity:1" fill="#faf500" d="M 52.5,1237.5 C 63.0002,1242.6 72.3336,1249.43 80.5,1258C 77.8068,1279.95 80.8068,1301.12 89.5,1321.5C 89.1667,1321.83 88.8333,1322.17 88.5,1322.5C 79.7621,1316.46 70.4288,1311.46 60.5,1307.5C 48.4134,1289.83 43.9134,1270.49 47,1249.5C 48.5879,1245.33 50.4212,1241.33 52.5,1237.5 Z"/></g>
<g><path style="opacity:1" fill="#faf500" d="M 1583.5,1243.5 C 1591.2,1253.48 1594.04,1264.82 1592,1277.5C 1589.1,1290.3 1584.26,1302.3 1577.5,1313.5C 1567.17,1318.49 1557.17,1323.66 1547.5,1329C 1556.15,1307.95 1559.65,1286.12 1558,1263.5C 1566.11,1256.21 1574.61,1249.54 1583.5,1243.5 Z"/></g>
<g><path style="opacity:1" fill="#faf500" d="M 162.5,1286.5 C 163.822,1286.33 164.989,1286.66 166,1287.5C 178.708,1306.62 184.708,1327.62 184,1350.5C 182.01,1347.28 179.51,1346.78 176.5,1349C 170,1354.17 164.167,1360 159,1366.5C 157.915,1357.49 155.582,1348.83 152,1340.5C 147.6,1332.19 143.1,1324.03 138.5,1316C 143.322,1303.49 151.322,1293.66 162.5,1286.5 Z"/></g>
<g><path style="opacity:1" fill="#fbf600" d="M 1472.5,1292.5 C 1485.29,1299.18 1494.29,1309.35 1499.5,1323C 1488.37,1338.09 1481.21,1354.93 1478,1373.5C 1472.64,1365.31 1465.81,1358.64 1457.5,1353.5C 1455.8,1354.36 1454.64,1355.7 1454,1357.5C 1452.46,1342.54 1454.79,1328.21 1461,1314.5C 1464.59,1306.98 1468.42,1299.65 1472.5,1292.5 Z"/></g>
<g><path style="opacity:1" fill="#fbf600" d="M 110.5,1297.5 C 136.556,1315.09 151.556,1339.59 155.5,1371C 155.388,1375.04 154.054,1378.54 151.5,1381.5C 143.785,1374.56 135.619,1368.23 127,1362.5C 119.395,1370.71 114.728,1380.38 113,1391.5C 103.143,1373.76 97.6427,1354.76 96.5,1334.5C 96.8436,1320.46 101.51,1308.13 110.5,1297.5 Z"/></g>
<g><path style="opacity:1" fill="#fbf600" d="M 1525.5,1303.5 C 1538.69,1317.55 1543.52,1334.22 1540,1353.5C 1537.46,1368.99 1532.46,1383.65 1525,1397.5C 1522.52,1386.87 1517.69,1377.54 1510.5,1369.5C 1501.63,1375.11 1493.29,1381.44 1485.5,1388.5C 1483.27,1384.82 1482.27,1380.82 1482.5,1376.5C 1484.44,1356.97 1491.6,1339.63 1504,1324.5C 1511.06,1317.27 1518.23,1310.27 1525.5,1303.5 Z"/></g>
<g><path style="opacity:1" fill="#faf500" d="M 62.5,1313.5 C 72.873,1317.52 82.5396,1322.85 91.5,1329.5C 92.6121,1353.67 99.2788,1376.17 111.5,1397C 101.488,1392.32 91.1551,1387.98 80.5,1384C 64.6142,1367.67 57.4476,1348.17 59,1325.5C 59.8838,1321.4 61.0505,1317.4 62.5,1313.5 Z"/></g>
<g><path style="opacity:1" fill="#faf500" d="M 1571.5,1320.5 C 1574.59,1320.63 1576.43,1322.29 1577,1325.5C 1581.57,1342.93 1578.9,1359.26 1569,1374.5C 1565.75,1380.25 1561.91,1385.59 1557.5,1390.5C 1546.63,1393.69 1536.46,1398.35 1527,1404.5C 1532.15,1392.83 1536.82,1380.83 1541,1368.5C 1543.76,1358.03 1545.26,1347.37 1545.5,1336.5C 1553.9,1330.64 1562.56,1325.31 1571.5,1320.5 Z"/></g>
<g><path style="opacity:1" fill="#fbf600" d="M 178.5,1352.5 C 192.864,1368.07 201.53,1386.57 204.5,1408C 194.477,1416.54 187.311,1427.04 183,1439.5C 179.587,1419.45 170.92,1402.12 157,1387.5C 157.267,1379.37 159.934,1372.04 165,1365.5C 168.736,1360.26 173.236,1355.93 178.5,1352.5 Z"/></g>
<g><path style="opacity:1" fill="#fbf600" d="M 1457.5,1358.5 C 1470.84,1366.51 1478.67,1378.18 1481,1393.5C 1467.44,1407.96 1458.6,1424.96 1454.5,1444.5C 1450.28,1433.38 1443.61,1424.04 1434.5,1416.5C 1434.17,1415 1433.83,1413.5 1433.5,1412C 1435.41,1398.59 1439.91,1386.09 1447,1374.5C 1450.33,1369.01 1453.83,1363.68 1457.5,1358.5 Z"/></g>
<g><path style="opacity:1" fill="#fbf600" d="M 126.5,1368.5 C 154.92,1384.26 172.42,1408.26 179,1440.5C 179.814,1442.9 179.647,1445.24 178.5,1447.5C 170.39,1441.94 161.724,1437.78 152.5,1435C 146.183,1445.56 143.016,1457.06 143,1469.5C 130.325,1453.15 121.658,1434.81 117,1414.5C 113.862,1397.74 117.028,1382.41 126.5,1368.5 Z"/></g>
<g><path style="opacity:1" fill="#fbf600" d="M 1495.5,1475.5 C 1494.83,1472.17 1494.17,1468.83 1493.5,1465.5C 1492.68,1456.37 1489.68,1448.04 1484.5,1440.5C 1475.23,1444.13 1466.56,1448.8 1458.5,1454.5C 1459.61,1435.25 1466.11,1417.92 1478,1402.5C 1487.43,1391.73 1498.1,1382.4 1510,1374.5C 1521.7,1390.62 1524.7,1408.29 1519,1427.5C 1513.54,1444.75 1505.71,1460.75 1495.5,1475.5 Z"/></g>
<g><path style="opacity:1" fill="#faf500" d="M 80.5,1388.5 C 91.7919,1391.87 102.292,1396.87 112,1403.5C 114.365,1427.1 122.532,1448.44 136.5,1467.5C 136.167,1467.83 135.833,1468.17 135.5,1468.5C 126.724,1465.41 117.724,1463.24 108.5,1462C 94.5952,1449.44 84.7618,1434.27 79,1416.5C 76.7688,1407.01 77.2688,1397.68 80.5,1388.5 Z"/></g>
<g><path style="opacity:1" fill="#fc0000" d="M 827.5,1396.5 C 860.411,1397.27 873.578,1413.93 867,1446.5C 863.82,1463.01 854.32,1473.84 838.5,1479C 834.577,1479.79 830.744,1479.63 827,1478.5C 826.551,1451.16 826.718,1423.83 827.5,1396.5 Z"/></g>
<g><path style="opacity:1" fill="#fbf600" d="M 1553.5,1395.5 C 1554.82,1395.33 1555.99,1395.66 1557,1396.5C 1562.17,1413.31 1559.84,1428.97 1550,1443.5C 1543.92,1452.25 1537.09,1460.42 1529.5,1468C 1520.45,1470.01 1511.45,1472.18 1502.5,1474.5C 1502.17,1474.17 1501.83,1473.83 1501.5,1473.5C 1515.09,1454.24 1523.25,1432.91 1526,1409.5C 1534.9,1404.13 1544.07,1399.47 1553.5,1395.5 Z"/></g>
<g><path style="opacity:1" fill="#fc0000" d="M 791.5,1399.5 C 794.833,1399.5 798.167,1399.5 801.5,1399.5C 802.15,1425.83 802.817,1452.17 803.5,1478.5C 784.337,1481.33 771.17,1473.66 764,1455.5C 758.757,1440.75 759.757,1426.41 767,1412.5C 773.634,1405.1 781.8,1400.77 791.5,1399.5 Z"/></g>
<g><path style="opacity:1" fill="#fbf600" d="M 202.5,1415.5 C 206.402,1417.89 209.902,1420.89 213,1424.5C 224.524,1437.21 232.691,1451.87 237.5,1468.5C 228.816,1477.53 222.982,1488.2 220,1500.5C 213.323,1481.16 201.99,1465.16 186,1452.5C 186.374,1437.88 191.874,1425.54 202.5,1415.5 Z"/></g>
<g><path style="opacity:1" fill="#fbf600" d="M 1433.5,1421.5 C 1445.46,1431.41 1451.46,1444.08 1451.5,1459.5C 1443.48,1465.35 1436.65,1472.35 1431,1480.5C 1425.81,1488.88 1421.14,1497.55 1417,1506.5C 1413.84,1494.52 1408.34,1483.85 1400.5,1474.5C 1407.03,1453.99 1418.03,1436.32 1433.5,1421.5 Z"/></g>
<g><path style="opacity:1" fill="#fbf600" d="M 153.5,1439.5 C 185.097,1451.26 206.43,1473.1 217.5,1505C 208.705,1501.36 199.871,1497.53 191,1493.5C 187.85,1498.8 185.517,1504.47 184,1510.5C 183.831,1517.52 183.331,1524.52 182.5,1531.5C 178.894,1529.4 175.727,1526.73 173,1523.5C 162.121,1510.08 154.121,1495.08 149,1478.5C 146.061,1464.96 147.561,1451.96 153.5,1439.5 Z"/></g>
<g><path style="opacity:1" fill="#fbf600" d="M 1481.5,1445.5 C 1483.69,1446.82 1485.19,1448.82 1486,1451.5C 1490.57,1465.46 1490.57,1479.46 1486,1493.5C 1479.57,1509.24 1470.74,1523.41 1459.5,1536C 1457.98,1537.01 1456.31,1537.51 1454.5,1537.5C 1455.95,1524.21 1453.29,1511.88 1446.5,1500.5C 1437.65,1503.84 1429.15,1507.84 1421,1512.5C 1426.5,1492.02 1437.67,1475.19 1454.5,1462C 1463.23,1455.97 1472.23,1450.47 1481.5,1445.5 Z"/></g>
<g><path style="opacity:1" fill="#faf500" d="M 111.5,1466.5 C 122.953,1468.45 133.953,1471.78 144.5,1476.5C 149.277,1495.25 157.944,1511.92 170.5,1526.5C 169.667,1526.83 168.833,1527.17 168,1527.5C 161.547,1526.09 155.047,1525.09 148.5,1524.5C 148.067,1527.17 147.567,1529.83 147,1532.5C 135.292,1523.79 125.292,1513.46 117,1501.5C 111.052,1490.48 109.219,1478.81 111.5,1466.5 Z"/></g>
<g><path style="opacity:1" fill="#928f00" d="M 1493.5,1465.5 C 1494.17,1468.83 1494.83,1472.17 1495.5,1475.5C 1495.22,1476.29 1494.72,1476.96 1494,1477.5C 1493.5,1473.51 1493.33,1469.51 1493.5,1465.5 Z"/></g>
<g><path style="opacity:1" fill="#fbf600" d="M 239.5,1472.5 C 253.145,1483.1 263.978,1496.1 272,1511.5C 272.667,1512.83 272.667,1514.17 272,1515.5C 263.994,1526.85 259.994,1539.52 260,1553.5C 251.98,1535.98 240.147,1521.65 224.5,1510.5C 223.99,1495.7 228.99,1483.04 239.5,1472.5 Z"/></g>
<g><path style="opacity:1" fill="#fbf600" d="M 1519.5,1473.5 C 1521.83,1473.5 1524.17,1473.5 1526.5,1473.5C 1528.55,1489.99 1524.38,1504.66 1514,1517.5C 1506.93,1525.24 1499.27,1532.24 1491,1538.5C 1491.54,1533.54 1489.37,1531.2 1484.5,1531.5C 1478.38,1532.11 1472.38,1532.95 1466.5,1534C 1479.29,1518.92 1488.29,1501.75 1493.5,1482.5C 1502,1478.67 1510.66,1475.67 1519.5,1473.5 Z"/></g>
<g><path style="opacity:1" fill="#fbf600" d="M 1378.5,1558.5 C 1377.83,1555.83 1377.17,1553.17 1376.5,1550.5C 1375.28,1539.39 1371.28,1529.39 1364.5,1520.5C 1372.18,1504.16 1383.18,1490.49 1397.5,1479.5C 1408.64,1489.77 1413.64,1502.44 1412.5,1517.5C 1397.5,1528.16 1386.16,1541.83 1378.5,1558.5 Z"/></g>
<g><path style="opacity:1" fill="#fbf600" d="M 191.5,1499.5 C 220.726,1508.12 242.06,1526.12 255.5,1553.5C 247.566,1552.52 239.566,1550.86 231.5,1548.5C 230.558,1548.61 229.725,1548.94 229,1549.5C 225.505,1561.58 225.672,1573.58 229.5,1585.5C 225.608,1586.33 221.775,1585.99 218,1584.5C 207.718,1573.88 199.384,1561.88 193,1548.5C 186.382,1532.29 185.882,1515.96 191.5,1499.5 Z"/></g>
<g><path style="opacity:1" fill="#fbf600" d="M 1443.5,1505.5 C 1444.38,1505.37 1445.04,1505.7 1445.5,1506.5C 1450.62,1518.09 1451.79,1530.09 1449,1542.5C 1442.77,1561.46 1432.6,1577.96 1418.5,1592C 1415.12,1592.82 1411.78,1592.66 1408.5,1591.5C 1412.5,1579.83 1412.5,1568.16 1408.5,1556.5C 1399.59,1555.85 1391.09,1557.52 1383,1561.5C 1382.5,1561.17 1382,1560.83 1381.5,1560.5C 1390.48,1541.35 1404.15,1526.52 1422.5,1516C 1429.56,1512.47 1436.56,1508.97 1443.5,1505.5 Z"/></g>
<g><path style="opacity:1" fill="#fb0000" d="M 801.5,1510.5 C 803.489,1531.47 804.156,1552.81 803.5,1574.5C 788.174,1571.99 780.507,1562.82 780.5,1547C 780.712,1530.72 787.712,1518.56 801.5,1510.5 Z"/></g>
<g><path style="opacity:1" fill="#fa0000" d="M 824.5,1512.5 C 830.728,1514.23 834.895,1518.23 837,1524.5C 839.491,1541.22 836.491,1556.89 828,1571.5C 826.951,1573.38 825.451,1574.72 823.5,1575.5C 822.833,1565.17 822.5,1554.67 822.5,1544C 822.501,1533.14 823.168,1522.64 824.5,1512.5 Z"/></g>
<g><path style="opacity:1" fill="#faf600" d="M 274.5,1519.5 C 293.32,1528.98 307.987,1542.98 318.5,1561.5C 311.087,1571.58 307.587,1582.91 308,1595.5C 297.264,1578.97 282.931,1566.64 265,1558.5C 263.025,1544.2 266.192,1531.2 274.5,1519.5 Z"/></g>
<g><path style="opacity:1" fill="#fbf600" d="M 1361.5,1525.5 C 1366.16,1530.13 1369.33,1535.8 1371,1542.5C 1372.52,1550.1 1372.86,1557.77 1372,1565.5C 1354.9,1573.93 1340.9,1585.93 1330,1601.5C 1329.36,1590.96 1326.69,1580.96 1322,1571.5C 1320.93,1570.38 1319.76,1569.38 1318.5,1568.5C 1329.22,1550.45 1343.55,1536.12 1361.5,1525.5 Z"/></g>
<g><path style="opacity:1" fill="#faf500" d="M 151.5,1529.5 C 162.947,1529.8 173.947,1532.13 184.5,1536.5C 190.123,1554.59 199.456,1570.42 212.5,1584C 206.175,1584.5 199.842,1584.67 193.5,1584.5C 193.665,1587.85 193.498,1591.18 193,1594.5C 178.425,1585.93 166.425,1574.59 157,1560.5C 151.353,1550.77 149.52,1540.44 151.5,1529.5 Z"/></g>
<g><path style="opacity:1" fill="#faf500" d="M 1479.5,1535.5 C 1481.83,1535.5 1484.17,1535.5 1486.5,1535.5C 1488.05,1550.99 1483.88,1564.65 1474,1576.5C 1465.21,1585.63 1455.54,1593.63 1445,1600.5C 1444.5,1597.52 1444.34,1594.52 1444.5,1591.5C 1437.83,1591.67 1431.16,1591.5 1424.5,1591C 1437.71,1577.44 1447.21,1561.61 1453,1543.5C 1455.19,1541.76 1457.69,1540.6 1460.5,1540C 1466.95,1538.41 1473.28,1536.91 1479.5,1535.5 Z"/></g>
<g><path style="opacity:1" fill="#fbf600" d="M 231.5,1553.5 C 264.214,1557.77 289.38,1573.77 307,1601.5C 308.301,1603.4 308.968,1605.4 309,1607.5C 298.725,1604.65 288.225,1602.99 277.5,1602.5C 275.366,1614.9 276.699,1626.9 281.5,1638.5C 264.229,1629.08 250.062,1615.75 239,1598.5C 230.89,1584.45 228.39,1569.45 231.5,1553.5 Z"/></g>
<g><path style="opacity:1" fill="#9d0000" d="M 824.5,1512.5 C 823.168,1522.64 822.501,1533.14 822.5,1544C 822.5,1554.67 822.833,1565.17 823.5,1575.5C 823.44,1576.04 823.107,1576.38 822.5,1576.5C 821.5,1554.84 821.167,1533.18 821.5,1511.5C 822.791,1511.26 823.791,1511.6 824.5,1512.5 Z"/></g>
<g><path style="opacity:1" fill="#898600" d="M 1376.5,1550.5 C 1377.17,1553.17 1377.83,1555.83 1378.5,1558.5C 1378.01,1559.47 1377.51,1560.47 1377,1561.5C 1376.5,1557.85 1376.33,1554.18 1376.5,1550.5 Z"/></g>
<g><path style="opacity:1" fill="#fbf600" d="M 1360.5,1610.5 C 1359.85,1609.27 1358.68,1608.61 1357,1608.5C 1355.62,1608.51 1354.45,1608.85 1353.5,1609.5C 1345.36,1610.02 1337.36,1611.35 1329.5,1613.5C 1329.17,1613 1328.83,1612.5 1328.5,1612C 1345.82,1582.55 1371.49,1565.05 1405.5,1559.5C 1409.11,1574.5 1407.28,1588.83 1400,1602.5C 1388.98,1620.7 1374.48,1634.7 1356.5,1644.5C 1361.37,1633.57 1362.7,1622.24 1360.5,1610.5 Z"/></g>
<g><path style="opacity:1" fill="#fbf600" d="M 318.5,1567.5 C 339.246,1575.41 356.079,1588.41 369,1606.5C 369.667,1607.83 369.667,1609.17 369,1610.5C 363.835,1619.83 361.502,1629.83 362,1640.5C 349.284,1625.44 333.617,1614.78 315,1608.5C 310.875,1594.39 312.041,1580.72 318.5,1567.5 Z"/></g>
<g><path style="opacity:1" fill="#fbf600" d="M 1276.5,1646.5 C 1275.83,1642.83 1275.17,1639.17 1274.5,1635.5C 1273.66,1628.14 1271.32,1621.3 1267.5,1615C 1280.14,1596.37 1296.98,1582.87 1318,1574.5C 1321.69,1579.88 1324.02,1585.88 1325,1592.5C 1325.78,1599.93 1325.28,1607.27 1323.5,1614.5C 1304.9,1620.96 1289.23,1631.63 1276.5,1646.5 Z"/></g>
<g><path style="opacity:1" fill="#faf500" d="M 197.5,1588.5 C 208.583,1588.23 219.583,1589.06 230.5,1591C 241.027,1611.06 255.694,1627.39 274.5,1640C 267.193,1640.95 259.86,1641.62 252.5,1642C 249.484,1642.22 246.984,1643.39 245,1645.5C 228.4,1638.88 214.734,1628.55 204,1614.5C 199.151,1606.48 196.984,1597.81 197.5,1588.5 Z"/></g>
<g><path style="opacity:1" fill="#faf500" d="M 1371.5,1647.5 C 1369.17,1646.83 1366.83,1646.17 1364.5,1645.5C 1382.95,1633.55 1396.95,1617.72 1406.5,1598C 1409.38,1596.87 1412.38,1596.21 1415.5,1596C 1423.83,1595.5 1432.16,1595.33 1440.5,1595.5C 1440.14,1613.06 1432.8,1626.89 1418.5,1637C 1410.24,1643.05 1401.41,1648.22 1392,1652.5C 1391.5,1651.33 1390.67,1650.5 1389.5,1650C 1383.52,1648.93 1377.52,1648.1 1371.5,1647.5 Z"/></g>
<g><path style="opacity:1" fill="#fbf600" d="M 280.5,1606.5 C 309.096,1607.41 333.596,1617.75 354,1637.5C 358.077,1641.74 361.577,1646.41 364.5,1651.5C 364,1651.83 363.5,1652.17 363,1652.5C 352.611,1650.28 342.111,1648.94 331.5,1648.5C 330.295,1660.63 331.962,1672.29 336.5,1683.5C 320.816,1676.74 306.983,1666.74 295,1653.5C 283.839,1639.85 279.005,1624.18 280.5,1606.5 Z"/></g>
<g><path style="opacity:1" fill="#6a6800" d="M 1353.5,1609.5 C 1354.45,1608.85 1355.62,1608.51 1357,1608.5C 1358.68,1608.61 1359.85,1609.27 1360.5,1610.5C 1358.28,1609.63 1355.95,1609.3 1353.5,1609.5 Z"/></g>
<g><path style="opacity:1" fill="#faf500" d="M 372.5,1612.5 C 394.738,1620.91 412.738,1634.75 426.5,1654C 423.172,1657.49 421.006,1661.65 420,1666.5C 418.861,1672.44 418.195,1678.44 418,1684.5C 404.575,1669.62 388.242,1659.28 369,1653.5C 364.822,1639.34 365.988,1625.68 372.5,1612.5 Z"/></g>
<g><path style="opacity:1" fill="#fbf600" d="M 1346.5,1613.5 C 1350.11,1613.21 1353.61,1613.54 1357,1614.5C 1358.17,1631.33 1353.5,1646.33 1343,1659.5C 1330.68,1672.86 1316.52,1683.36 1300.5,1691C 1305.56,1680.06 1307.39,1668.56 1306,1656.5C 1295.96,1655.39 1285.96,1656.06 1276,1658.5C 1273.18,1658.03 1272.84,1656.69 1275,1654.5C 1293.39,1631.26 1317.22,1617.6 1346.5,1613.5 Z"/></g>
<g><path style="opacity:1" fill="#fbf600" d="M 1262.5,1619.5 C 1263.82,1619.33 1264.99,1619.66 1266,1620.5C 1270.81,1633.15 1271.81,1646.15 1269,1659.5C 1250.06,1665.79 1233.72,1676.12 1220,1690.5C 1220.19,1679.42 1217.35,1669.26 1211.5,1660C 1224.8,1641.87 1241.8,1628.37 1262.5,1619.5 Z"/></g>
<g><path style="opacity:1" fill="#5e5d00" d="M 1274.5,1635.5 C 1275.17,1639.17 1275.83,1642.83 1276.5,1646.5C 1276.22,1647.29 1275.72,1647.96 1275,1648.5C 1274.5,1644.18 1274.33,1639.85 1274.5,1635.5 Z"/></g>
<g><path style="opacity:1" fill="#fbf600" d="M 329.5,1685.5 C 327.5,1686.17 325.5,1686.83 323.5,1687.5C 316.105,1688.07 308.772,1689.07 301.5,1690.5C 301.5,1692.17 301.5,1693.83 301.5,1695.5C 288.249,1691.71 276.249,1685.54 265.5,1677C 256.396,1668.86 251.396,1658.69 250.5,1646.5C 261.779,1644.49 273.112,1644.15 284.5,1645.5C 296.367,1662.37 311.367,1675.7 329.5,1685.5 Z"/></g>
<g><path style="opacity:1" fill="#918e00" d="M 1364.5,1645.5 C 1366.83,1646.17 1369.17,1646.83 1371.5,1647.5C 1368.48,1647.66 1365.48,1647.5 1362.5,1647C 1363.04,1646.28 1363.71,1645.78 1364.5,1645.5 Z"/></g>
<g><path style="opacity:1" fill="#fbf600" d="M 1352.5,1651.5 C 1363.93,1651.04 1375.26,1651.71 1386.5,1653.5C 1385.65,1665.71 1380.65,1675.88 1371.5,1684C 1360.88,1692.39 1349.05,1698.56 1336,1702.5C 1335.51,1700.87 1335.34,1699.2 1335.5,1697.5C 1325.91,1695.59 1316.24,1694.09 1306.5,1693C 1320.86,1685.23 1333.7,1675.39 1345,1663.5C 1348.27,1659.95 1350.77,1655.95 1352.5,1651.5 Z"/></g>
<g><path style="opacity:1" fill="#fbf600" d="M 335.5,1652.5 C 368.789,1652.9 396.289,1665.57 418,1690.5C 419.302,1693.38 420.135,1696.38 420.5,1699.5C 409.577,1697.78 398.577,1696.78 387.5,1696.5C 387.334,1702.18 387.501,1707.84 388,1713.5C 388.499,1718.66 389.999,1723.5 392.5,1728C 369.834,1719.01 352.334,1703.85 340,1682.5C 336.235,1672.84 334.735,1662.84 335.5,1652.5 Z"/></g>
<g><path style="opacity:1" fill="#faf500" d="M 1290.5,1659.5 C 1294.5,1659.5 1298.5,1659.5 1302.5,1659.5C 1303.29,1674.97 1299.12,1688.97 1290,1701.5C 1277.91,1715.38 1263.57,1726.38 1247,1734.5C 1249.01,1724.36 1249.84,1714.02 1249.5,1703.5C 1238.76,1703.29 1228.1,1703.96 1217.5,1705.5C 1217.58,1701.77 1218.74,1698.44 1221,1695.5C 1239.77,1674.86 1262.94,1662.86 1290.5,1659.5 Z"/></g>
<g><path style="opacity:1" fill="#fbf600" d="M 426.5,1659.5 C 452.937,1667.13 473.103,1682.8 487,1706.5C 487.333,1712.17 487.667,1717.83 488,1723.5C 489.406,1729.21 490.906,1734.88 492.5,1740.5C 489.813,1740.66 487.146,1740.5 484.5,1740C 468.806,1720.4 448.972,1706.9 425,1699.5C 421.308,1686.01 421.808,1672.67 426.5,1659.5 Z"/></g>
<g><path style="opacity:1" fill="#faf600" d="M 1209.5,1665.5 C 1214.84,1674.73 1216.68,1684.73 1215,1695.5C 1214.67,1699.64 1213.84,1703.64 1212.5,1707.5C 1197.95,1710.44 1184.95,1716.61 1173.5,1726C 1166.17,1732 1159.5,1738.67 1153.5,1746C 1150.85,1746.5 1148.19,1746.66 1145.5,1746.5C 1146.56,1741.49 1147.72,1736.49 1149,1731.5C 1149.33,1725.5 1149.67,1719.5 1150,1713.5C 1164.03,1690.3 1183.87,1674.3 1209.5,1665.5 Z"/></g>
<g><path style="opacity:1" fill="#5a5901" d="M 329.5,1685.5 C 330.043,1685.56 330.376,1685.89 330.5,1686.5C 328.257,1687.47 325.924,1687.81 323.5,1687.5C 325.5,1686.83 327.5,1686.17 329.5,1685.5 Z"/></g>
<g><path style="opacity:1" fill="#f9f500" d="M 323.5,1690.5 C 329.206,1690.17 334.872,1690.5 340.5,1691.5C 354.317,1710.42 371.983,1724.58 393.5,1734C 385.462,1734.74 377.462,1735.74 369.5,1737C 365.48,1737.75 361.814,1739.25 358.5,1741.5C 344.55,1737.36 331.883,1730.86 320.5,1722C 312.221,1714.27 307.554,1704.77 306.5,1693.5C 312.349,1692.8 318.016,1691.8 323.5,1690.5 Z"/></g>
<g><path style="opacity:1" fill="#faf500" d="M 1250.5,1741.5 C 1248.83,1740.83 1247.17,1740.17 1245.5,1739.5C 1266.5,1730.34 1283.83,1716.51 1297.5,1698C 1308.96,1697.1 1320.3,1697.93 1331.5,1700.5C 1328.1,1717.47 1318.77,1729.97 1303.5,1738C 1295.77,1741.86 1287.77,1745.02 1279.5,1747.5C 1270.14,1744.33 1260.48,1742.33 1250.5,1741.5 Z"/></g>
<g><path style="opacity:1" fill="#fbf600" d="M 493.5,1699.5 C 518.977,1703.99 540.477,1715.65 558,1734.5C 559.182,1736.34 560.349,1738.18 561.5,1740C 560.043,1744.71 559.376,1749.55 559.5,1754.5C 559.596,1759.94 560.096,1765.28 561,1770.5C 543.383,1753.53 522.383,1743.53 498,1740.5C 491.259,1727.42 489.759,1713.75 493.5,1699.5 Z"/></g>
<g><path style="opacity:1" fill="#fcf700" d="M 404.5,1701.5 C 434.889,1703.53 459.556,1716.36 478.5,1740C 472.493,1740.5 466.493,1741 460.5,1741.5C 460.664,1754.98 464.664,1767.15 472.5,1778C 466.686,1780.17 461.019,1779.84 455.5,1777C 436.812,1768.96 420.312,1757.8 406,1743.5C 398.22,1734.61 393.72,1724.27 392.5,1712.5C 392.5,1708.83 392.5,1705.17 392.5,1701.5C 396.5,1701.5 400.5,1701.5 404.5,1701.5 Z"/></g>
<g><path style="opacity:1" fill="#b0ac00" d="M 404.5,1701.5 C 400.5,1701.5 396.5,1701.5 392.5,1701.5C 392.5,1705.17 392.5,1708.83 392.5,1712.5C 391.517,1708.7 391.183,1704.7 391.5,1700.5C 396.032,1700.18 400.366,1700.52 404.5,1701.5 Z"/></g>
<g><path style="opacity:1" fill="#fbf600" d="M 1138.5,1706.5 C 1140.5,1706.5 1142.5,1706.5 1144.5,1706.5C 1147.01,1720.34 1145.51,1733.68 1140,1746.5C 1115.88,1750.06 1094.88,1760.06 1077,1776.5C 1077.72,1766.67 1077.55,1756.84 1076.5,1747C 1082.79,1736.71 1091.12,1728.38 1101.5,1722C 1113.22,1715.16 1125.55,1709.99 1138.5,1706.5 Z"/></g>
<g><path style="opacity:1" fill="#fbf600" d="M 1228.5,1707.5 C 1234.17,1707.5 1239.83,1707.5 1245.5,1707.5C 1246.51,1723.32 1242.01,1737.32 1232,1749.5C 1216.8,1765.19 1198.96,1777.03 1178.5,1785C 1174.13,1785.83 1169.8,1785.66 1165.5,1784.5C 1172.8,1773.61 1176.46,1761.61 1176.5,1748.5C 1170.52,1747.86 1164.52,1747.36 1158.5,1747C 1176.74,1724.71 1200.08,1711.55 1228.5,1707.5 Z"/></g>
<g><path style="opacity:1" fill="#faf500" d="M 382.5,1738.5 C 387.511,1738.33 392.511,1738.5 397.5,1739C 407.666,1752.17 419.999,1762.83 434.5,1771C 441.833,1774.67 449.167,1778.33 456.5,1782C 450.655,1784.67 444.655,1786.84 438.5,1788.5C 438.33,1789.82 438.663,1790.99 439.5,1792C 416.006,1790.41 395.006,1782.41 376.5,1768C 370.346,1761.03 366.013,1753.03 363.5,1744C 363.905,1743.05 364.572,1742.39 365.5,1742C 371.315,1740.87 376.981,1739.7 382.5,1738.5 Z"/></g>
<g><path style="opacity:1" fill="#fbf600" d="M 565.5,1739.5 C 604.56,1746.09 632.06,1767.43 648,1803.5C 648.332,1808.19 647.998,1812.86 647,1817.5C 646.479,1820.87 645.146,1823.87 643,1826.5C 642.605,1822.98 641.605,1819.65 640,1816.5C 620.936,1795.88 597.436,1783.55 569.5,1779.5C 563.281,1766.66 561.947,1753.32 565.5,1739.5 Z"/></g>
<g><path style="opacity:1" fill="#868300" d="M 1245.5,1739.5 C 1247.17,1740.17 1248.83,1740.83 1250.5,1741.5C 1248.14,1741.66 1245.81,1741.5 1243.5,1741C 1244.04,1740.28 1244.71,1739.78 1245.5,1739.5 Z"/></g>
<g><path style="opacity:1" fill="#fbf600" d="M 563.5,1778.5 C 557.5,1779.17 551.5,1779.83 545.5,1780.5C 541.5,1780.83 537.5,1781.17 533.5,1781.5C 533.309,1786.9 533.809,1792.23 535,1797.5C 536.707,1802.62 538.374,1807.62 540,1812.5C 521.019,1807.42 503.519,1799.26 487.5,1788C 473.925,1777.02 466.592,1762.85 465.5,1745.5C 503.998,1739.78 536.665,1750.78 563.5,1778.5 Z"/></g>
<g><path style="opacity:1" fill="#fbf600" d="M 1239.5,1745.5 C 1250.91,1745.68 1262.24,1746.68 1273.5,1748.5C 1271.52,1761.64 1265.19,1772.14 1254.5,1780C 1237.07,1789.98 1218.4,1796.48 1198.5,1799.5C 1198.76,1798.02 1198.43,1796.69 1197.5,1795.5C 1192.02,1792.84 1186.35,1790.67 1180.5,1789C 1200.62,1780.53 1218.45,1768.7 1234,1753.5C 1236.05,1750.95 1237.89,1748.29 1239.5,1745.5 Z"/></g>
<g><path style="opacity:1" fill="#fbf600" d="M 1069.5,1745.5 C 1070.5,1745.41 1071.33,1745.75 1072,1746.5C 1074.91,1760.27 1073.58,1773.6 1068,1786.5C 1039.9,1790.38 1016.23,1802.72 997,1823.5C 995.089,1835.29 992.756,1835.29 990,1823.5C 989.333,1818.5 989.333,1813.5 990,1808.5C 1006.21,1774.48 1032.71,1753.48 1069.5,1745.5 Z"/></g>
<g><path style="opacity:1" fill="#fbf600" d="M 1140.5,1750.5 C 1151.25,1750.14 1161.91,1750.81 1172.5,1752.5C 1171.01,1769.98 1163.34,1784.14 1149.5,1795C 1133.7,1806.53 1116.37,1814.03 1097.5,1817.5C 1102.5,1808.49 1104.83,1798.83 1104.5,1788.5C 1094.22,1787.09 1083.89,1786.26 1073.5,1786C 1091.72,1766.23 1114.05,1754.39 1140.5,1750.5 Z"/></g>
<g><path style="opacity:1" fill="#525000" d="M 563.5,1778.5 C 564.043,1778.56 564.376,1778.89 564.5,1779.5C 558.202,1780.5 551.868,1780.83 545.5,1780.5C 551.5,1779.83 557.5,1779.17 563.5,1778.5 Z"/></g>
<g><path style="opacity:1" fill="#faf500" d="M 470.5,1782.5 C 472.527,1782.34 474.527,1782.5 476.5,1783C 486.868,1793.35 498.868,1801.35 512.5,1807C 523.013,1811.28 533.68,1814.95 544.5,1818C 531.798,1820.73 519.465,1824.57 507.5,1829.5C 488.739,1828.53 471.739,1822.69 456.5,1812C 450.542,1806.58 446.209,1800.08 443.5,1792.5C 445.153,1790.88 447.153,1789.71 449.5,1789C 456.572,1786.66 463.572,1784.49 470.5,1782.5 Z"/></g>
<g><path style="opacity:1" fill="#fcf700" d="M 537.5,1784.5 C 576.807,1779.27 609.973,1790.94 637,1819.5C 644.772,1842.39 636.606,1853.22 612.5,1852C 591.918,1846.71 573.252,1837.71 556.5,1825C 544.364,1814.23 538.031,1800.73 537.5,1784.5 Z"/></g>
<g><path style="opacity:1" fill="#faf500" d="M 1160.5,1789.5 C 1171.91,1790.53 1182.91,1793.19 1193.5,1797.5C 1190.6,1809.1 1183.94,1817.94 1173.5,1824C 1158.46,1831.87 1142.46,1835.54 1125.5,1835C 1114.83,1830.58 1103.83,1827.25 1092.5,1825C 1108.26,1820.19 1123.6,1814.19 1138.5,1807C 1146.89,1802.44 1154.22,1796.61 1160.5,1789.5 Z"/></g>
<g><path style="opacity:1" fill="#fcf700" d="M 1065.5,1790.5 C 1077.18,1790.4 1088.85,1790.73 1100.5,1791.5C 1098.04,1814.25 1086.7,1831.09 1066.5,1842C 1051.47,1850.01 1035.64,1855.84 1019,1859.5C 998.336,1856.18 992.336,1844.85 1001,1825.5C 1018.63,1806.6 1040.13,1794.94 1065.5,1790.5 Z"/></g>
<g><path style="opacity:1" fill="#faf600" d="M 542.5,1822.5 C 544.527,1822.34 546.527,1822.5 548.5,1823C 566.583,1839.27 587.583,1850.27 611.5,1856C 617.629,1856.82 623.629,1856.32 629.5,1854.5C 629.702,1856.99 629.202,1859.32 628,1861.5C 624.248,1864.63 620.081,1867.13 615.5,1869C 591.998,1871.34 568.998,1869.01 546.5,1862C 531.221,1856.22 520.888,1845.72 515.5,1830.5C 524.477,1827.39 533.477,1824.73 542.5,1822.5 Z"/></g>
<g><path style="opacity:1" fill="#fbf700" d="M 647.5,1826.5 C 705.449,1849.98 763.116,1874.15 820.5,1899C 807.67,1903.94 795.004,1909.28 782.5,1915C 781.167,1915.67 779.833,1915.67 778.5,1915C 730.47,1893.98 682.47,1872.98 634.5,1852C 642.112,1846.94 645.612,1839.77 645,1830.5C 646.481,1829.53 647.315,1828.2 647.5,1826.5 Z"/></g>
<g><path style="opacity:1" fill="#fbf600" d="M 1089.5,1828.5 C 1096.88,1830.01 1104.21,1831.84 1111.5,1834C 1115.37,1834.73 1118.71,1836.39 1121.5,1839C 1116.94,1852.56 1107.94,1861.9 1094.5,1867C 1071.49,1874.82 1047.82,1877.82 1023.5,1876C 1016.99,1874.34 1011.83,1870.84 1008,1865.5C 1007.51,1864.21 1007.34,1862.87 1007.5,1861.5C 1012.37,1863.07 1017.37,1863.57 1022.5,1863C 1044.96,1858.08 1065.3,1848.75 1083.5,1835C 1085.71,1832.96 1087.71,1830.8 1089.5,1828.5 Z"/></g>
<g><path style="opacity:1" fill="#fcf700" d="M 987.5,1832.5 C 989.74,1833.57 991.574,1835.23 993,1837.5C 992.322,1846.84 995.822,1854.01 1003.5,1859C 901.751,1902.81 800.084,1946.81 698.5,1991C 694.2,1994.3 690.2,1997.96 686.5,2002C 680.042,2007.26 672.708,2009.26 664.5,2008C 660.127,2005.08 658.127,2000.92 658.5,1995.5C 660.153,1983.53 665.486,1973.53 674.5,1965.5C 779.038,1921.39 883.372,1877.06 987.5,1832.5 Z"/></g>
<g><path style="opacity:1" fill="#fbf600" d="M 871.5,1920.5 C 902.26,1933.04 932.927,1945.88 963.5,1959C 971.879,1967.59 977.212,1977.76 979.5,1989.5C 977.953,2000.95 971.62,2004.78 960.5,2001C 952.739,1997.11 946.072,1991.78 940.5,1985C 904.417,1969.53 868.417,1953.86 832.5,1938C 845.827,1932.67 858.827,1926.83 871.5,1920.5 Z"/></g>
</svg>
